<svg xmlns="http://www.w3.org/2000/svg" viewBox="0 0 2400 1600" width="2400" height="1600" role="img">
<defs><linearGradient id="sky" x1="0" y1="0" x2="0" y2="1"><stop offset="0%" stop-color="#2C2A33" stop-opacity="1"/><stop offset="46%" stop-color="#7A6558" stop-opacity="1"/><stop offset="100%" stop-color="#D6A87B" stop-opacity="1"/></linearGradient><radialGradient id="sun" cx="50%" cy="50%" r="50%"><stop offset="0%" stop-color="#f5d7a5" stop-opacity="0.55"/><stop offset="38%" stop-color="#f5d7a5" stop-opacity="0.16"/><stop offset="100%" stop-color="#f5d7a5" stop-opacity="0"/></radialGradient><linearGradient id="sea" x1="0" y1="0" x2="0" y2="1"><stop offset="0%" stop-color="#67676c" stop-opacity="1"/><stop offset="100%" stop-color="#3a3a3e" stop-opacity="1"/></linearGradient><filter id="soft" x="-25%" y="-25%" width="150%" height="150%"><feGaussianBlur stdDeviation="14"/></filter><filter id="vg-f" x="0" y="0" width="100%" height="100%"><feTurbulence type="fractalNoise" baseFrequency="0.9" numOctaves="3" stitchTiles="stitch"/><feColorMatrix type="saturate" values="0"/></filter>
<pattern id="vg" width="120" height="120" patternUnits="userSpaceOnUse"><rect width="120" height="120" filter="url(#vg-f)" opacity="1"/></pattern><radialGradient id="vig" cx="50%" cy="42%" r="80%"><stop offset="52%" stop-color="#000000" stop-opacity="0"/><stop offset="100%" stop-color="#0A0806" stop-opacity="0.48"/></radialGradient></defs>
<rect x="0" y="0" width="2400" height="1600" fill="url(#sky)"/><circle cx="1728" cy="524.83" r="253.44" fill="url(#sun)"/><path d="M0,778.27 L0,634.27 Q288,538.27 624,682.27 T1056,778.27 Z" fill="#ac8e72" opacity="0.75"/><rect x="0" y="778.27" width="2400" height="821.73" fill="url(#sea)"/><rect x="347.71" y="778.27" width="530.06" height="2.07" fill="#e9c489" opacity="0.08"/><rect x="53.78" y="780.58" width="1421.54" height="2.73" fill="#e9c489" opacity="0.09"/><rect x="396.13" y="786.9" width="1237" height="1.85" fill="#e9c489" opacity="0.09"/><rect x="1089.62" y="796.92" width="1275.94" height="1.8" fill="#e9c489" opacity="0.05"/><rect x="935.85" y="810.48" width="625.91" height="2.21" fill="#e9c489" opacity="0.05"/><rect x="657.52" y="827.49" width="1364.06" height="2.27" fill="#e9c489" opacity="0.07"/><rect x="1070.06" y="847.87" width="1173.35" height="1.02" fill="#e9c489" opacity="0.06"/><rect x="948.29" y="871.55" width="1393.63" height="2.17" fill="#e9c489" opacity="0.11"/><rect x="690.23" y="898.49" width="701.06" height="1.88" fill="#e9c489" opacity="0.11"/><rect x="1054.22" y="928.65" width="738.48" height="2.51" fill="#e9c489" opacity="0.12"/><rect x="1131.84" y="961.98" width="1315.33" height="1.11" fill="#e9c489" opacity="0.05"/><rect x="379.63" y="998.45" width="1010.75" height="1.11" fill="#e9c489" opacity="0.1"/><rect x="33.41" y="1038.03" width="1246.58" height="2.67" fill="#e9c489" opacity="0.11"/><rect x="93.48" y="1080.69" width="785.98" height="1.78" fill="#e9c489" opacity="0.07"/><rect x="1176.08" y="1126.42" width="662.18" height="1.83" fill="#e9c489" opacity="0.09"/><rect x="7.1" y="1175.19" width="1139.86" height="2.41" fill="#e9c489" opacity="0.12"/><rect x="265.73" y="1226.97" width="564.61" height="1.69" fill="#e9c489" opacity="0.05"/><rect x="597.85" y="1281.75" width="1218.87" height="2.84" fill="#e9c489" opacity="0.09"/><rect x="780.47" y="1339.5" width="588.74" height="1.49" fill="#e9c489" opacity="0.06"/><rect x="447.53" y="1400.22" width="1026.07" height="2.57" fill="#e9c489" opacity="0.07"/><rect x="949.48" y="1463.89" width="921.04" height="1.26" fill="#e9c489" opacity="0.04"/><rect x="758.32" y="1530.49" width="692.86" height="1.21" fill="#e9c489" opacity="0.08"/><path d="M833.53,1600 C1025.53,874.27 1121.53,754.51 1313.53,691.15 L2400,659.47 L2400,1600 Z" fill="#1d1a1c"/><path d="M833.53,1600 C1025.53,874.27 1121.53,754.51 1313.53,691.15 L1409.53,697.15 C1217.53,786.19 1121.53,906.27 953.53,1600 Z" fill="#3d3a3c" opacity="0.7"/><rect x="1241.53" y="562.2" width="437.75" height="144.79" fill="#e0bd86"/><rect x="1241.53" y="562.2" width="437.75" height="3" fill="#e9cfa8"/><rect x="1241.53" y="617.22" width="376.47" height="43.44" fill="#141419" opacity="0.82"/><rect x="1316.82" y="617.22" width="2" height="43.44" fill="#e0bd86" opacity="0.7"/><rect x="1392.12" y="617.22" width="2" height="43.44" fill="#e0bd86" opacity="0.7"/><rect x="1467.41" y="617.22" width="2" height="43.44" fill="#e0bd86" opacity="0.7"/><rect x="1542.7" y="617.22" width="2" height="43.44" fill="#e0bd86" opacity="0.7"/><rect x="1241.53" y="706.99" width="446.51" height="4" fill="#9d845e" opacity="0.35"/><rect x="1453.68" y="346.53" width="349.38" height="187.93" fill="#dab884"/><rect x="1453.68" y="346.53" width="349.38" height="3" fill="#e4cca6"/><rect x="1453.68" y="417.95" width="300.46" height="56.38" fill="#141419" opacity="0.82"/><rect x="1513.77" y="417.95" width="2" height="56.38" fill="#dab884" opacity="0.7"/><rect x="1573.86" y="417.95" width="2" height="56.38" fill="#dab884" opacity="0.7"/><rect x="1633.96" y="417.95" width="2" height="56.38" fill="#dab884" opacity="0.7"/><rect x="1694.05" y="417.95" width="2" height="56.38" fill="#dab884" opacity="0.7"/><rect x="1453.68" y="534.46" width="356.36" height="4" fill="#99815c" opacity="0.35"/><rect x="1883.07" y="241.22" width="449.89" height="180.2" fill="#d5b482"/><rect x="1883.07" y="241.22" width="449.89" height="3" fill="#e1c9a5"/><rect x="1883.07" y="309.7" width="386.9" height="54.06" fill="#141419" opacity="0.82"/><rect x="1960.45" y="309.7" width="2" height="54.06" fill="#d5b482" opacity="0.7"/><rect x="2037.84" y="309.7" width="2" height="54.06" fill="#d5b482" opacity="0.7"/><rect x="2115.22" y="309.7" width="2" height="54.06" fill="#d5b482" opacity="0.7"/><rect x="2192.6" y="309.7" width="2" height="54.06" fill="#d5b482" opacity="0.7"/><rect x="1883.07" y="421.42" width="458.88" height="4" fill="#957e5b" opacity="0.35"/><rect x="2071.81" y="99.72" width="465.95" height="187.38" fill="#d0b081"/><rect x="2071.81" y="99.72" width="465.95" height="3" fill="#ddc6a4"/><rect x="2071.81" y="170.93" width="400.72" height="56.21" fill="#141419" opacity="0.82"/><rect x="2151.95" y="170.93" width="2" height="56.21" fill="#d0b081" opacity="0.7"/><rect x="2232.09" y="170.93" width="2" height="56.21" fill="#d0b081" opacity="0.7"/><rect x="2312.24" y="170.93" width="2" height="56.21" fill="#d0b081" opacity="0.7"/><rect x="2392.38" y="170.93" width="2" height="56.21" fill="#d0b081" opacity="0.7"/><rect x="2071.81" y="287.1" width="475.27" height="4" fill="#927b5a" opacity="0.35"/><rect x="0" y="1363.35" width="2400" height="236.65" fill="#947d5c"/><rect x="0" y="1363.35" width="2400" height="2" fill="#edd0a1" opacity="0.5"/><rect x="322.03" y="1419.35" width="1010.98" height="160" fill="#46464c"/><rect x="322.03" y="1419.35" width="1010.98" height="3" fill="#ebca95" opacity="0.35"/><rect x="770.83" y="1443.35" width="343.65" height="2" fill="#ffffff" opacity="0.13"/><rect x="853.78" y="1468.95" width="230.3" height="2" fill="#ffffff" opacity="0.09"/><rect x="786.55" y="1494.55" width="278.23" height="2" fill="#ffffff" opacity="0.06"/><rect x="592.52" y="1520.15" width="194.16" height="2" fill="#ffffff" opacity="0.12"/><rect x="675.16" y="1545.75" width="266.33" height="2" fill="#ffffff" opacity="0.11"/><path d="M245.14,1395.35 q7.72,-95.53 -3.86,-173.68" stroke="#171617" stroke-width="6.56" fill="none" stroke-linecap="round"/><path d="M241.28,1221.67 Q204.52,1194.65 163.9,1233.24" stroke="#171617" stroke-width="5.02" fill="none" stroke-linecap="round"/><path d="M241.28,1221.67 Q215.33,1194.65 185.53,1212" stroke="#171617" stroke-width="5.02" fill="none" stroke-linecap="round"/><path d="M241.28,1221.67 Q224.13,1194.65 203.12,1189.61" stroke="#171617" stroke-width="5.02" fill="none" stroke-linecap="round"/><path d="M241.28,1221.67 Q243.21,1194.65 241.28,1179.79" stroke="#171617" stroke-width="5.02" fill="none" stroke-linecap="round"/><path d="M241.28,1221.67 Q258.95,1194.65 272.75,1197.28" stroke="#171617" stroke-width="5.02" fill="none" stroke-linecap="round"/><path d="M241.28,1221.67 Q276.39,1194.65 307.63,1207.96" stroke="#171617" stroke-width="5.02" fill="none" stroke-linecap="round"/><path d="M241.28,1221.67 Q274.41,1194.65 303.67,1233.24" stroke="#171617" stroke-width="5.02" fill="none" stroke-linecap="round"/><path d="M2086.47,1443.35 q9.48,-117.29 -4.74,-213.25" stroke="#171617" stroke-width="8.06" fill="none" stroke-linecap="round"/><path d="M2081.73,1230.1 Q2043.98,1196.93 2001.49,1244.32" stroke="#171617" stroke-width="6.16" fill="none" stroke-linecap="round"/><path d="M2081.73,1230.1 Q2052.4,1196.93 2018.33,1220.16" stroke="#171617" stroke-width="6.16" fill="none" stroke-linecap="round"/><path d="M2081.73,1230.1 Q2064.4,1196.93 2042.33,1199.27" stroke="#171617" stroke-width="6.16" fill="none" stroke-linecap="round"/><path d="M2081.73,1230.1 Q2084.1,1196.93 2081.73,1202.17" stroke="#171617" stroke-width="6.16" fill="none" stroke-linecap="round"/><path d="M2081.73,1230.1 Q2108.26,1196.93 2130.05,1189.08" stroke="#171617" stroke-width="6.16" fill="none" stroke-linecap="round"/><path d="M2081.73,1230.1 Q2110.34,1196.93 2134.22,1224.32" stroke="#171617" stroke-width="6.16" fill="none" stroke-linecap="round"/><path d="M2081.73,1230.1 Q2128.44,1196.93 2170.4,1244.32" stroke="#171617" stroke-width="6.16" fill="none" stroke-linecap="round"/><ellipse cx="1316.15" cy="1411.35" rx="19.9" ry="14.33" fill="#1b191b"/><ellipse cx="1498.84" cy="1411.35" rx="23.17" ry="16.68" fill="#1b191b"/><ellipse cx="1666.19" cy="1411.35" rx="22.88" ry="16.47" fill="#1b191b"/><ellipse cx="1850.61" cy="1411.35" rx="21.04" ry="15.15" fill="#1b191b"/><ellipse cx="2023.83" cy="1411.35" rx="15.39" ry="11.08" fill="#1b191b"/><ellipse cx="2203.14" cy="1411.35" rx="26.94" ry="19.4" fill="#1b191b"/><ellipse cx="2368.82" cy="1411.35" rx="18.78" ry="13.52" fill="#1b191b"/><rect x="0" y="1504" width="2400" height="96" fill="#1E1B1D" opacity="0.55"/>
<rect x="0" y="0" width="2400" height="1600" fill="url(#vig)"/>
<rect x="0" y="0" width="2400" height="1600" fill="url(#vg)" opacity="0.15" style="mix-blend-mode:overlay"/>
</svg>