<svg xmlns="http://www.w3.org/2000/svg" viewBox="0 0 2400 1600" width="2400" height="1600" role="img">
<defs><linearGradient id="sky" x1="0" y1="0" x2="0" y2="1"><stop offset="0%" stop-color="#DAD3C6" stop-opacity="1"/><stop offset="46%" stop-color="#EAE4D8" stop-opacity="1"/><stop offset="100%" stop-color="#F6F2E9" stop-opacity="1"/></linearGradient><radialGradient id="sun" cx="50%" cy="50%" r="50%"><stop offset="0%" stop-color="#fef0d5" stop-opacity="0.55"/><stop offset="38%" stop-color="#fef0d5" stop-opacity="0.16"/><stop offset="100%" stop-color="#fef0d5" stop-opacity="0"/></radialGradient><linearGradient id="gnd" x1="0" y1="0" x2="0" y2="1"><stop offset="0%" stop-color="#c8c0b2" stop-opacity="1"/><stop offset="100%" stop-color="#868073" stop-opacity="1"/></linearGradient><filter id="vg-f" x="0" y="0" width="100%" height="100%"><feTurbulence type="fractalNoise" baseFrequency="0.9" numOctaves="3" stitchTiles="stitch"/><feColorMatrix type="saturate" values="0"/></filter>
<pattern id="vg" width="120" height="120" patternUnits="userSpaceOnUse"><rect width="120" height="120" filter="url(#vg-f)" opacity="1"/></pattern><radialGradient id="vig" cx="50%" cy="42%" r="80%"><stop offset="52%" stop-color="#000000" stop-opacity="0"/><stop offset="100%" stop-color="#0A0806" stop-opacity="0.48"/></radialGradient></defs>
<rect x="0" y="0" width="2400" height="1600" fill="url(#sky)"/><circle cx="748.61" cy="352" r="269.28" fill="url(#sun)"/><rect x="0" y="1013.18" width="2400" height="586.82" fill="url(#gnd)"/><rect x="450.59" y="802.07" width="1271.93" height="211.11" fill="#fdfbf4"/><rect x="450.59" y="802.07" width="1271.93" height="5" fill="#fefcf7"/><rect x="450.59" y="1007.18" width="1271.93" height="6" fill="#a7a6a1" opacity="0.5"/><rect x="526.91" y="844.29" width="851.47" height="122.44" fill="#54514A" opacity="0.88"/><rect x="526.91" y="844.29" width="851.47" height="122.44" fill="#fdfaf3" opacity="0.07"/><rect x="697.2" y="844.29" width="2.5" height="122.44" fill="#fdfbf4" opacity="0.85"/><rect x="867.5" y="844.29" width="2.5" height="122.44" fill="#fdfbf4" opacity="0.85"/><rect x="1037.79" y="844.29" width="2.5" height="122.44" fill="#fdfbf4" opacity="0.85"/><rect x="1208.09" y="844.29" width="2.5" height="122.44" fill="#fdfbf4" opacity="0.85"/><rect x="272.11" y="590.96" width="1426.97" height="211.11" fill="#d5d3cd"/><rect x="272.11" y="590.96" width="1426.97" height="5" fill="#fefcf7"/><rect x="272.11" y="796.07" width="1426.97" height="6" fill="#a7a6a1" opacity="0.5"/><rect x="893.58" y="633.18" width="719.88" height="122.44" fill="#54514A" opacity="0.88"/><rect x="893.58" y="633.18" width="719.88" height="122.44" fill="#fdfaf3" opacity="0.07"/><rect x="1013.56" y="633.18" width="2.5" height="122.44" fill="#fdfbf4" opacity="0.85"/><rect x="1133.54" y="633.18" width="2.5" height="122.44" fill="#fdfbf4" opacity="0.85"/><rect x="1253.52" y="633.18" width="2.5" height="122.44" fill="#fdfbf4" opacity="0.85"/><rect x="1373.5" y="633.18" width="2.5" height="122.44" fill="#fdfbf4" opacity="0.85"/><rect x="1493.48" y="633.18" width="2.5" height="122.44" fill="#fdfbf4" opacity="0.85"/><polygon points="346.03,1013.18 1743.43,1013.18 2123.59,1189.22 219.31,1189.22" fill="#625e54" opacity="0.28"/><path d="M246.51,1045.18 C156.97,789.35 182.56,520.73 246.51,405.61 C310.47,520.73 336.05,789.35 246.51,1045.18 Z" fill="#7d7667"/><path d="M2155.02,1077.18 C2076.36,852.43 2098.84,616.45 2155.02,515.32 C2211.21,616.45 2233.68,852.43 2155.02,1077.18 Z" fill="#7d7667"/><path d="M1920,1029.18 C1862.34,864.44 1878.82,691.47 1920,617.34 C1961.18,691.47 1977.66,864.44 1920,1029.18 Z" fill="#978f80"/><rect x="424.91" y="1205.53" width="1375.46" height="330.47" fill="#9ba59e"/><rect x="424.91" y="1205.53" width="1375.46" height="3" fill="#fdfbf5" opacity="0.4"/><rect x="562.45" y="1213.53" width="852.78" height="157.79" fill="#fdfbf4" opacity="0.12"/><rect x="593.82" y="1237.53" width="324.6" height="2" fill="#ffffff" opacity="0.11"/><rect x="943.56" y="1266.33" width="459.19" height="2" fill="#ffffff" opacity="0.08"/><rect x="845.87" y="1295.13" width="441.59" height="2" fill="#ffffff" opacity="0.09"/><rect x="663.52" y="1323.93" width="340.97" height="2" fill="#ffffff" opacity="0.06"/><rect x="947.51" y="1352.73" width="344.31" height="2" fill="#ffffff" opacity="0.1"/><rect x="438.77" y="1381.53" width="376.69" height="2" fill="#ffffff" opacity="0.1"/><ellipse cx="9.78" cy="1037.18" rx="19.55" ry="14.08" fill="#8a8273"/><ellipse cx="296.26" cy="1037.18" rx="29.91" ry="21.53" fill="#8a8273"/><ellipse cx="601.36" cy="1037.18" rx="21.02" ry="15.13" fill="#8a8273"/><ellipse cx="905.52" cy="1037.18" rx="23.13" ry="16.65" fill="#8a8273"/><ellipse cx="1207.16" cy="1037.18" rx="14.76" ry="10.63" fill="#8a8273"/><ellipse cx="1501.08" cy="1037.18" rx="23.98" ry="17.27" fill="#8a8273"/><ellipse cx="1792.29" cy="1037.18" rx="24.21" ry="17.43" fill="#8a8273"/><ellipse cx="2105.74" cy="1037.18" rx="27.29" ry="19.65" fill="#8a8273"/><ellipse cx="2402.13" cy="1037.18" rx="27.49" ry="19.79" fill="#8a8273"/>
<rect x="0" y="0" width="2400" height="1600" fill="url(#vig)"/>
<rect x="0" y="0" width="2400" height="1600" fill="url(#vg)" opacity="0.15" style="mix-blend-mode:overlay"/>
</svg>