<svg xmlns="http://www.w3.org/2000/svg" viewBox="0 0 2400 1600" width="2400" height="1600" role="img">
<defs><linearGradient id="sky" x1="0" y1="0" x2="0" y2="1"><stop offset="0%" stop-color="#2C2A33" stop-opacity="1"/><stop offset="46%" stop-color="#7A6558" stop-opacity="1"/><stop offset="100%" stop-color="#D6A87B" stop-opacity="1"/></linearGradient><radialGradient id="sun" cx="50%" cy="50%" r="50%"><stop offset="0%" stop-color="#f5d7a5" stop-opacity="0.55"/><stop offset="38%" stop-color="#f5d7a5" stop-opacity="0.16"/><stop offset="100%" stop-color="#f5d7a5" stop-opacity="0"/></radialGradient><linearGradient id="gnd" x1="0" y1="0" x2="0" y2="1"><stop offset="0%" stop-color="#574a3b" stop-opacity="1"/><stop offset="100%" stop-color="#171416" stop-opacity="1"/></linearGradient><filter id="vg-f" x="0" y="0" width="100%" height="100%"><feTurbulence type="fractalNoise" baseFrequency="0.9" numOctaves="3" stitchTiles="stitch"/><feColorMatrix type="saturate" values="0"/></filter>
<pattern id="vg" width="120" height="120" patternUnits="userSpaceOnUse"><rect width="120" height="120" filter="url(#vg-f)" opacity="1"/></pattern><radialGradient id="vig" cx="50%" cy="42%" r="80%"><stop offset="52%" stop-color="#000000" stop-opacity="0"/><stop offset="100%" stop-color="#0A0806" stop-opacity="0.48"/></radialGradient></defs>
<rect x="0" y="0" width="2400" height="1600" fill="url(#sky)"/><circle cx="387.81" cy="352" r="269.28" fill="url(#sun)"/><rect x="0" y="965.09" width="2400" height="634.91" fill="url(#gnd)"/><rect x="421.34" y="726.19" width="1357.34" height="238.9" fill="#eccb97"/><rect x="421.34" y="726.19" width="1357.34" height="5" fill="#f2dbb6"/><rect x="421.34" y="959.09" width="1357.34" height="6" fill="#9c8664" opacity="0.5"/><rect x="502.78" y="773.97" width="954.66" height="138.56" fill="#141419" opacity="0.88"/><rect x="502.78" y="773.97" width="954.66" height="138.56" fill="#e9c489" opacity="0.07"/><rect x="741.44" y="773.97" width="2.5" height="138.56" fill="#eccb97" opacity="0.85"/><rect x="980.11" y="773.97" width="2.5" height="138.56" fill="#eccb97" opacity="0.85"/><rect x="1218.77" y="773.97" width="2.5" height="138.56" fill="#eccb97" opacity="0.85"/><rect x="421.37" y="487.29" width="1384.17" height="238.9" fill="#c6ab7f"/><rect x="421.37" y="487.29" width="1384.17" height="5" fill="#f2dbb6"/><rect x="421.37" y="720.19" width="1384.17" height="6" fill="#9c8664" opacity="0.5"/><rect x="882.12" y="535.07" width="840.37" height="138.56" fill="#141419" opacity="0.88"/><rect x="882.12" y="535.07" width="840.37" height="138.56" fill="#e9c489" opacity="0.07"/><rect x="1050.19" y="535.07" width="2.5" height="138.56" fill="#eccb97" opacity="0.85"/><rect x="1218.27" y="535.07" width="2.5" height="138.56" fill="#eccb97" opacity="0.85"/><rect x="1386.34" y="535.07" width="2.5" height="138.56" fill="#eccb97" opacity="0.85"/><rect x="1554.41" y="535.07" width="2.5" height="138.56" fill="#eccb97" opacity="0.85"/><rect x="291.01" y="248.38" width="1513.74" height="238.9" fill="#eccb97"/><rect x="291.01" y="248.38" width="1513.74" height="5" fill="#f2dbb6"/><rect x="291.01" y="481.29" width="1513.74" height="6" fill="#9c8664" opacity="0.5"/><rect x="381.83" y="296.17" width="764.24" height="138.56" fill="#141419" opacity="0.88"/><rect x="381.83" y="296.17" width="764.24" height="138.56" fill="#e9c489" opacity="0.07"/><rect x="636.58" y="296.17" width="2.5" height="138.56" fill="#eccb97" opacity="0.85"/><rect x="891.33" y="296.17" width="2.5" height="138.56" fill="#eccb97" opacity="0.85"/><polygon points="387.79,965.09 1785.39,965.09 2165.55,1155.56 261.07,1155.56" fill="#110f10" opacity="0.28"/><path d="M122.1,997.09 C29.47,732.44 55.94,454.55 122.1,335.45 C188.27,454.55 214.73,732.44 122.1,997.09 Z" fill="#1b191b"/><path d="M2185.66,1029.09 C2101.47,788.55 2125.52,535.97 2185.66,427.73 C2245.79,535.97 2269.85,788.55 2185.66,1029.09 Z" fill="#1b191b"/><rect x="443.1" y="1198.34" width="1228.2" height="337.66" fill="#44444a"/><rect x="443.1" y="1198.34" width="1228.2" height="3" fill="#edd0a1" opacity="0.4"/><rect x="565.92" y="1206.34" width="761.49" height="160.67" fill="#eccb97" opacity="0.12"/><rect x="913.58" y="1230.34" width="389.21" height="2" fill="#ffffff" opacity="0.1"/><rect x="730.35" y="1259.14" width="290.46" height="2" fill="#ffffff" opacity="0.11"/><rect x="1010.82" y="1287.94" width="217" height="2" fill="#ffffff" opacity="0.06"/><rect x="612.64" y="1316.74" width="179.64" height="2" fill="#ffffff" opacity="0.09"/><rect x="820.03" y="1345.54" width="148.32" height="2" fill="#ffffff" opacity="0.11"/><rect x="871.64" y="1374.34" width="246.82" height="2" fill="#ffffff" opacity="0.11"/><ellipse cx="-3.66" cy="989.09" rx="17.53" ry="12.62" fill="#1c191b"/><ellipse cx="291.28" cy="989.09" rx="20.47" ry="14.74" fill="#1c191b"/><ellipse cx="602.59" cy="989.09" rx="19.31" ry="13.9" fill="#1c191b"/><ellipse cx="891.81" cy="989.09" rx="25.3" ry="18.21" fill="#1c191b"/><ellipse cx="1197.72" cy="989.09" rx="15.59" ry="11.23" fill="#1c191b"/><ellipse cx="1505.11" cy="989.09" rx="22.65" ry="16.31" fill="#1c191b"/><ellipse cx="1790.24" cy="989.09" rx="15.42" ry="11.1" fill="#1c191b"/><ellipse cx="2106.88" cy="989.09" rx="14.7" ry="10.59" fill="#1c191b"/><ellipse cx="2393.36" cy="989.09" rx="21.1" ry="15.19" fill="#1c191b"/>
<rect x="0" y="0" width="2400" height="1600" fill="url(#vig)"/>
<rect x="0" y="0" width="2400" height="1600" fill="url(#vg)" opacity="0.15" style="mix-blend-mode:overlay"/>
</svg>