<svg xmlns="http://www.w3.org/2000/svg" viewBox="0 0 2400 1600" width="2400" height="1600" role="img">
<defs><linearGradient id="sky" x1="0" y1="0" x2="0" y2="1"><stop offset="0%" stop-color="#3A2B26" stop-opacity="1"/><stop offset="46%" stop-color="#8E5C43" stop-opacity="1"/><stop offset="100%" stop-color="#D99A67" stop-opacity="1"/></linearGradient><radialGradient id="sun" cx="50%" cy="50%" r="50%"><stop offset="0%" stop-color="#f8d7a5" stop-opacity="0.55"/><stop offset="38%" stop-color="#f8d7a5" stop-opacity="0.16"/><stop offset="100%" stop-color="#f8d7a5" stop-opacity="0"/></radialGradient><linearGradient id="sea" x1="0" y1="0" x2="0" y2="1"><stop offset="0%" stop-color="#756762" stop-opacity="1"/><stop offset="100%" stop-color="#473a35" stop-opacity="1"/></linearGradient><filter id="soft" x="-25%" y="-25%" width="150%" height="150%"><feGaussianBlur stdDeviation="14"/></filter><filter id="vg-f" x="0" y="0" width="100%" height="100%"><feTurbulence type="fractalNoise" baseFrequency="0.9" numOctaves="3" stitchTiles="stitch"/><feColorMatrix type="saturate" values="0"/></filter>
<pattern id="vg" width="120" height="120" patternUnits="userSpaceOnUse"><rect width="120" height="120" filter="url(#vg-f)" opacity="1"/></pattern><radialGradient id="vig" cx="50%" cy="42%" r="80%"><stop offset="52%" stop-color="#000000" stop-opacity="0"/><stop offset="100%" stop-color="#0A0806" stop-opacity="0.48"/></radialGradient></defs>
<rect x="0" y="0" width="2400" height="1600" fill="url(#sky)"/><circle cx="1728" cy="562.05" r="253.44" fill="url(#sun)"/><path d="M0,815.49 L0,671.49 Q288,575.49 624,719.49 T1056,815.49 Z" fill="#ba8965" opacity="0.75"/><rect x="0" y="815.49" width="2400" height="784.51" fill="url(#sea)"/><rect x="741" y="815.49" width="810.19" height="2.06" fill="#f0c489" opacity="0.1"/><rect x="24.15" y="817.7" width="847.22" height="2.76" fill="#f0c489" opacity="0.07"/><rect x="308.32" y="823.73" width="695.69" height="2.26" fill="#f0c489" opacity="0.12"/><rect x="809.32" y="833.3" width="1182.18" height="2.78" fill="#f0c489" opacity="0.11"/><rect x="30.43" y="846.25" width="459.17" height="2.96" fill="#f0c489" opacity="0.09"/><rect x="314.86" y="862.49" width="732.38" height="1.47" fill="#f0c489" opacity="0.08"/><rect x="455.2" y="881.94" width="919.28" height="2.48" fill="#f0c489" opacity="0.06"/><rect x="595.2" y="904.55" width="625.4" height="2.67" fill="#f0c489" opacity="0.1"/><rect x="501.76" y="930.27" width="1266.4" height="1.95" fill="#f0c489" opacity="0.09"/><rect x="1021.74" y="959.06" width="1290.11" height="2.32" fill="#f0c489" opacity="0.13"/><rect x="323.23" y="990.88" width="572.03" height="1.67" fill="#f0c489" opacity="0.05"/><rect x="250.99" y="1025.7" width="751.94" height="1.34" fill="#f0c489" opacity="0.07"/><rect x="1093.83" y="1063.49" width="650.79" height="1.14" fill="#f0c489" opacity="0.07"/><rect x="371.6" y="1104.22" width="573.87" height="1.94" fill="#f0c489" opacity="0.11"/><rect x="422.41" y="1147.87" width="1110.35" height="1.67" fill="#f0c489" opacity="0.05"/><rect x="807.66" y="1194.43" width="683.35" height="2.64" fill="#f0c489" opacity="0.13"/><rect x="710.86" y="1243.87" width="1199.49" height="1.36" fill="#f0c489" opacity="0.13"/><rect x="1056.12" y="1296.16" width="1287.63" height="2.3" fill="#f0c489" opacity="0.11"/><rect x="767.06" y="1351.3" width="685.98" height="1.8" fill="#f0c489" opacity="0.05"/><rect x="956.68" y="1409.27" width="1339.72" height="2.75" fill="#f0c489" opacity="0.1"/><rect x="962.24" y="1470.05" width="712.48" height="1.05" fill="#f0c489" opacity="0.06"/><rect x="635.48" y="1533.64" width="895.87" height="1.62" fill="#f0c489" opacity="0.12"/><path d="M928.49,1600 C1120.49,911.49 1216.49,791.73 1408.49,728.37 L2400,696.69 L2400,1600 Z" fill="#231d1b"/><path d="M928.49,1600 C1120.49,911.49 1216.49,791.73 1408.49,728.37 L1504.49,734.37 C1312.49,823.41 1216.49,943.49 1048.49,1600 Z" fill="#423d3b" opacity="0.7"/><rect x="1336.49" y="580.06" width="432.16" height="164.15" fill="#e8bd85"/><rect x="1336.49" y="580.06" width="432.16" height="3" fill="#eecfa7"/><rect x="1336.49" y="642.44" width="371.66" height="49.25" fill="#171314" opacity="0.82"/><rect x="1410.82" y="642.44" width="2" height="49.25" fill="#e8bd85" opacity="0.7"/><rect x="1485.15" y="642.44" width="2" height="49.25" fill="#e8bd85" opacity="0.7"/><rect x="1559.48" y="642.44" width="2" height="49.25" fill="#e8bd85" opacity="0.7"/><rect x="1633.82" y="642.44" width="2" height="49.25" fill="#e8bd85" opacity="0.7"/><rect x="1336.49" y="744.21" width="440.8" height="4" fill="#a2845d" opacity="0.35"/><rect x="1583.36" y="427.83" width="427" height="168.68" fill="#e4b883"/><rect x="1583.36" y="427.83" width="427" height="3" fill="#eccca6"/><rect x="1583.36" y="491.93" width="367.22" height="50.61" fill="#171314" opacity="0.82"/><rect x="1656.81" y="491.93" width="2" height="50.61" fill="#e4b883" opacity="0.7"/><rect x="1730.25" y="491.93" width="2" height="50.61" fill="#e4b883" opacity="0.7"/><rect x="1803.69" y="491.93" width="2" height="50.61" fill="#e4b883" opacity="0.7"/><rect x="1877.14" y="491.93" width="2" height="50.61" fill="#e4b883" opacity="0.7"/><rect x="1583.36" y="596.52" width="435.54" height="4" fill="#a0815c" opacity="0.35"/><rect x="1809.7" y="307.69" width="353.47" height="154.23" fill="#dfb481"/><rect x="1809.7" y="307.69" width="353.47" height="3" fill="#e8c9a4"/><rect x="1809.7" y="366.29" width="303.98" height="46.27" fill="#171314" opacity="0.82"/><rect x="1870.49" y="366.29" width="2" height="46.27" fill="#dfb481" opacity="0.7"/><rect x="1931.29" y="366.29" width="2" height="46.27" fill="#dfb481" opacity="0.7"/><rect x="1992.09" y="366.29" width="2" height="46.27" fill="#dfb481" opacity="0.7"/><rect x="2052.88" y="366.29" width="2" height="46.27" fill="#dfb481" opacity="0.7"/><rect x="1809.7" y="461.91" width="360.53" height="4" fill="#9c7e5a" opacity="0.35"/><rect x="2132.51" y="218.37" width="385.24" height="141.77" fill="#dbb07e"/><rect x="2132.51" y="218.37" width="385.24" height="3" fill="#e5c6a2"/><rect x="2132.51" y="272.25" width="331.31" height="42.53" fill="#171314" opacity="0.82"/><rect x="2198.77" y="272.25" width="2" height="42.53" fill="#dbb07e" opacity="0.7"/><rect x="2265.03" y="272.25" width="2" height="42.53" fill="#dbb07e" opacity="0.7"/><rect x="2331.29" y="272.25" width="2" height="42.53" fill="#dbb07e" opacity="0.7"/><rect x="2397.55" y="272.25" width="2" height="42.53" fill="#dbb07e" opacity="0.7"/><rect x="2132.51" y="360.15" width="392.95" height="4" fill="#997b58" opacity="0.35"/><rect x="0" y="1309.08" width="2400" height="290.92" fill="#9a7e5b"/><rect x="0" y="1309.08" width="2400" height="2" fill="#f3d0a1" opacity="0.5"/><rect x="116.92" y="1365.08" width="1073.11" height="160" fill="#564641"/><rect x="116.92" y="1365.08" width="1073.11" height="3" fill="#f2ca95" opacity="0.35"/><rect x="678.81" y="1389.08" width="344.77" height="2" fill="#ffffff" opacity="0.14"/><rect x="357.9" y="1414.68" width="174.25" height="2" fill="#ffffff" opacity="0.08"/><rect x="447.72" y="1440.28" width="402.57" height="2" fill="#ffffff" opacity="0.07"/><rect x="724.18" y="1465.88" width="397.68" height="2" fill="#ffffff" opacity="0.12"/><rect x="623.79" y="1491.48" width="291.19" height="2" fill="#ffffff" opacity="0.08"/><path d="M173.29,1341.08 q6.95,-85.96 -3.47,-156.29" stroke="#1f1918" stroke-width="5.9" fill="none" stroke-linecap="round"/><path d="M169.82,1184.78 Q144.67,1160.47 116.04,1195.2" stroke="#1f1918" stroke-width="4.52" fill="none" stroke-linecap="round"/><path d="M169.82,1184.78 Q150.3,1160.47 127.31,1179" stroke="#1f1918" stroke-width="4.52" fill="none" stroke-linecap="round"/><path d="M169.82,1184.78 Q161.02,1160.47 148.75,1171.11" stroke="#1f1918" stroke-width="4.52" fill="none" stroke-linecap="round"/><path d="M169.82,1184.78 Q171.56,1160.47 169.82,1149.56" stroke="#1f1918" stroke-width="4.52" fill="none" stroke-linecap="round"/><path d="M169.82,1184.78 Q186.34,1160.47 199.39,1161.4" stroke="#1f1918" stroke-width="4.52" fill="none" stroke-linecap="round"/><path d="M169.82,1184.78 Q193.72,1160.47 214.15,1178.31" stroke="#1f1918" stroke-width="4.52" fill="none" stroke-linecap="round"/><path d="M169.82,1184.78 Q207.23,1160.47 241.17,1195.2" stroke="#1f1918" stroke-width="4.52" fill="none" stroke-linecap="round"/><path d="M2090.36,1389.08 q9.35,-115.73 -4.68,-210.41" stroke="#1f1918" stroke-width="7.95" fill="none" stroke-linecap="round"/><path d="M2085.68,1178.67 Q2042.05,1145.93 1993.74,1192.69" stroke="#1f1918" stroke-width="6.08" fill="none" stroke-linecap="round"/><path d="M2085.68,1178.67 Q2052.99,1145.93 2015.63,1166" stroke="#1f1918" stroke-width="6.08" fill="none" stroke-linecap="round"/><path d="M2085.68,1178.67 Q2068.64,1145.93 2046.92,1148.39" stroke="#1f1918" stroke-width="6.08" fill="none" stroke-linecap="round"/><path d="M2085.68,1178.67 Q2088.02,1145.93 2085.68,1144.91" stroke="#1f1918" stroke-width="6.08" fill="none" stroke-linecap="round"/><path d="M2085.68,1178.67 Q2102.42,1145.93 2114.49,1159.76" stroke="#1f1918" stroke-width="6.08" fill="none" stroke-linecap="round"/><path d="M2085.68,1178.67 Q2117.68,1145.93 2145,1170.09" stroke="#1f1918" stroke-width="6.08" fill="none" stroke-linecap="round"/><path d="M2085.68,1178.67 Q2134.06,1145.93 2177.76,1192.69" stroke="#1f1918" stroke-width="6.08" fill="none" stroke-linecap="round"/><ellipse cx="1328.46" cy="1357.08" rx="21.15" ry="15.23" fill="#231c1b"/><ellipse cx="1490.71" cy="1357.08" rx="20.28" ry="14.6" fill="#231c1b"/><ellipse cx="1668.59" cy="1357.08" rx="16.52" ry="11.89" fill="#231c1b"/><ellipse cx="1847.92" cy="1357.08" rx="22.09" ry="15.9" fill="#231c1b"/><ellipse cx="2016.88" cy="1357.08" rx="21.2" ry="15.26" fill="#231c1b"/><ellipse cx="2194.55" cy="1357.08" rx="29.33" ry="21.11" fill="#231c1b"/><ellipse cx="2367.3" cy="1357.08" rx="27.24" ry="19.61" fill="#231c1b"/><rect x="0" y="1504" width="2400" height="96" fill="#241D1B" opacity="0.55"/>
<rect x="0" y="0" width="2400" height="1600" fill="url(#vig)"/>
<rect x="0" y="0" width="2400" height="1600" fill="url(#vg)" opacity="0.15" style="mix-blend-mode:overlay"/>
</svg>