<svg xmlns="http://www.w3.org/2000/svg" viewBox="0 0 1800 1200" width="1800" height="1200" role="img">
<defs><linearGradient id="rake" x1="0" y1="0" x2="1" y2="0"><stop offset="0%" stop-color="#FFE9C6" stop-opacity="0.18"/><stop offset="42%" stop-color="#ffffff" stop-opacity="0"/><stop offset="100%" stop-color="#0A0806" stop-opacity="0.34"/></linearGradient><filter id="dsoft" x="-25%" y="-25%" width="150%" height="150%"><feGaussianBlur stdDeviation="18"/></filter><filter id="vg-f" x="0" y="0" width="100%" height="100%"><feTurbulence type="fractalNoise" baseFrequency="0.9" numOctaves="3" stitchTiles="stitch"/><feColorMatrix type="saturate" values="0"/></filter>
<pattern id="vg" width="120" height="120" patternUnits="userSpaceOnUse"><rect width="120" height="120" filter="url(#vg-f)" opacity="1"/></pattern><radialGradient id="vig" cx="50%" cy="42%" r="80%"><stop offset="52%" stop-color="#000000" stop-opacity="0"/><stop offset="100%" stop-color="#0A0806" stop-opacity="0.48"/></radialGradient></defs>
<rect x="0" y="0" width="1800" height="1200" fill="#dfbc86"/><rect x="-180" y="0" width="184" height="145" fill="#ddba85"/><rect x="-180" y="0" width="184" height="3" fill="#e4c89d" opacity="0.7"/><rect x="-180" y="142" width="184" height="3" fill="#907956" opacity="0.45"/><rect x="10" y="0" width="184" height="145" fill="#b4986c"/><rect x="10" y="0" width="184" height="3" fill="#c3ad89" opacity="0.7"/><rect x="10" y="142" width="184" height="3" fill="#756346" opacity="0.45"/><rect x="200" y="0" width="184" height="145" fill="#dfbd87"/><rect x="200" y="0" width="184" height="3" fill="#e5ca9f" opacity="0.7"/><rect x="200" y="142" width="184" height="3" fill="#917b58" opacity="0.45"/><rect x="390" y="0" width="184" height="145" fill="#b5996d"/><rect x="390" y="0" width="184" height="3" fill="#c4ad8a" opacity="0.7"/><rect x="390" y="142" width="184" height="3" fill="#766347" opacity="0.45"/><rect x="580" y="0" width="184" height="145" fill="#dab883"/><rect x="580" y="0" width="184" height="3" fill="#e1c69c" opacity="0.7"/><rect x="580" y="142" width="184" height="3" fill="#8e7855" opacity="0.45"/><rect x="770" y="0" width="184" height="145" fill="#d1b07e"/><rect x="770" y="0" width="184" height="3" fill="#dac098" opacity="0.7"/><rect x="770" y="142" width="184" height="3" fill="#887252" opacity="0.45"/><rect x="960" y="0" width="184" height="145" fill="#c1a374"/><rect x="960" y="0" width="184" height="3" fill="#cdb590" opacity="0.7"/><rect x="960" y="142" width="184" height="3" fill="#7d6a4b" opacity="0.45"/><rect x="1150" y="0" width="184" height="145" fill="#ba9c70"/><rect x="1150" y="0" width="184" height="3" fill="#c8b08d" opacity="0.7"/><rect x="1150" y="142" width="184" height="3" fill="#796549" opacity="0.45"/><rect x="1340" y="0" width="184" height="145" fill="#cead7c"/><rect x="1340" y="0" width="184" height="3" fill="#d8bd96" opacity="0.7"/><rect x="1340" y="142" width="184" height="3" fill="#867051" opacity="0.45"/><rect x="1530" y="0" width="184" height="145" fill="#e2c291"/><rect x="1530" y="0" width="184" height="3" fill="#e8cea7" opacity="0.7"/><rect x="1530" y="142" width="184" height="3" fill="#937e5e" opacity="0.45"/><rect x="1720" y="0" width="184" height="145" fill="#e2c291"/><rect x="1720" y="0" width="184" height="3" fill="#e8cea7" opacity="0.7"/><rect x="1720" y="142" width="184" height="3" fill="#937e5e" opacity="0.45"/><rect x="1910" y="0" width="184" height="145" fill="#b69a6e"/><rect x="1910" y="0" width="184" height="3" fill="#c5ae8b" opacity="0.7"/><rect x="1910" y="142" width="184" height="3" fill="#766448" opacity="0.45"/><rect x="0" y="145" width="1800" height="5" fill="#816d4e" opacity="0.5"/><rect x="-112.09" y="150" width="184" height="145" fill="#c8a978"/><rect x="-112.09" y="150" width="184" height="3" fill="#d3ba93" opacity="0.7"/><rect x="-112.09" y="292" width="184" height="3" fill="#826e4e" opacity="0.45"/><rect x="77.91" y="150" width="184" height="145" fill="#c6a777"/><rect x="77.91" y="150" width="184" height="3" fill="#d1b992" opacity="0.7"/><rect x="77.91" y="292" width="184" height="3" fill="#816d4d" opacity="0.45"/><rect x="267.91" y="150" width="184" height="145" fill="#bc9e71"/><rect x="267.91" y="150" width="184" height="3" fill="#c9b18d" opacity="0.7"/><rect x="267.91" y="292" width="184" height="3" fill="#7a6749" opacity="0.45"/><rect x="457.91" y="150" width="184" height="145" fill="#e1c08d"/><rect x="457.91" y="150" width="184" height="3" fill="#e7cda4" opacity="0.7"/><rect x="457.91" y="292" width="184" height="3" fill="#927d5c" opacity="0.45"/><rect x="647.91" y="150" width="184" height="145" fill="#dcba84"/><rect x="647.91" y="150" width="184" height="3" fill="#e3c89d" opacity="0.7"/><rect x="647.91" y="292" width="184" height="3" fill="#8f7956" opacity="0.45"/><rect x="837.91" y="150" width="184" height="145" fill="#e3c495"/><rect x="837.91" y="150" width="184" height="3" fill="#e9d0aa" opacity="0.7"/><rect x="837.91" y="292" width="184" height="3" fill="#947f61" opacity="0.45"/><rect x="1027.91" y="150" width="184" height="145" fill="#debb86"/><rect x="1027.91" y="150" width="184" height="3" fill="#e5c99e" opacity="0.7"/><rect x="1027.91" y="292" width="184" height="3" fill="#907a57" opacity="0.45"/><rect x="1217.91" y="150" width="184" height="145" fill="#e1bf8c"/><rect x="1217.91" y="150" width="184" height="3" fill="#e7cca3" opacity="0.7"/><rect x="1217.91" y="292" width="184" height="3" fill="#927c5b" opacity="0.45"/><rect x="1407.91" y="150" width="184" height="145" fill="#c5a676"/><rect x="1407.91" y="150" width="184" height="3" fill="#d1b891" opacity="0.7"/><rect x="1407.91" y="292" width="184" height="3" fill="#806c4d" opacity="0.45"/><rect x="1597.91" y="150" width="184" height="145" fill="#b3976c"/><rect x="1597.91" y="150" width="184" height="3" fill="#c2ac89" opacity="0.7"/><rect x="1597.91" y="292" width="184" height="3" fill="#746246" opacity="0.45"/><rect x="1787.91" y="150" width="184" height="145" fill="#ceae7c"/><rect x="1787.91" y="150" width="184" height="3" fill="#d8be96" opacity="0.7"/><rect x="1787.91" y="292" width="184" height="3" fill="#867151" opacity="0.45"/><rect x="1977.91" y="150" width="184" height="145" fill="#e1c08d"/><rect x="1977.91" y="150" width="184" height="3" fill="#e7cda4" opacity="0.7"/><rect x="1977.91" y="292" width="184" height="3" fill="#927d5c" opacity="0.45"/><rect x="0" y="295" width="1800" height="5" fill="#816d4e" opacity="0.5"/><rect x="-180" y="300" width="184" height="145" fill="#e3c597"/><rect x="-180" y="300" width="184" height="3" fill="#e9d1ac" opacity="0.7"/><rect x="-180" y="442" width="184" height="3" fill="#948062" opacity="0.45"/><rect x="10" y="300" width="184" height="145" fill="#d8b682"/><rect x="10" y="300" width="184" height="3" fill="#e0c59b" opacity="0.7"/><rect x="10" y="442" width="184" height="3" fill="#8c7655" opacity="0.45"/><rect x="200" y="300" width="184" height="145" fill="#e3c494"/><rect x="200" y="300" width="184" height="3" fill="#e9d0a9" opacity="0.7"/><rect x="200" y="442" width="184" height="3" fill="#947f60" opacity="0.45"/><rect x="390" y="300" width="184" height="145" fill="#e3c597"/><rect x="390" y="300" width="184" height="3" fill="#e9d1ac" opacity="0.7"/><rect x="390" y="442" width="184" height="3" fill="#948062" opacity="0.45"/><rect x="580" y="300" width="184" height="145" fill="#c5a677"/><rect x="580" y="300" width="184" height="3" fill="#d1b892" opacity="0.7"/><rect x="580" y="442" width="184" height="3" fill="#806c4d" opacity="0.45"/><rect x="770" y="300" width="184" height="145" fill="#d9b782"/><rect x="770" y="300" width="184" height="3" fill="#e1c59b" opacity="0.7"/><rect x="770" y="442" width="184" height="3" fill="#8d7755" opacity="0.45"/><rect x="960" y="300" width="184" height="145" fill="#e3c595"/><rect x="960" y="300" width="184" height="3" fill="#e9d1aa" opacity="0.7"/><rect x="960" y="442" width="184" height="3" fill="#948061" opacity="0.45"/><rect x="1150" y="300" width="184" height="145" fill="#cfae7c"/><rect x="1150" y="300" width="184" height="3" fill="#d9be96" opacity="0.7"/><rect x="1150" y="442" width="184" height="3" fill="#877151" opacity="0.45"/><rect x="1340" y="300" width="184" height="145" fill="#e2c190"/><rect x="1340" y="300" width="184" height="3" fill="#e8cda6" opacity="0.7"/><rect x="1340" y="442" width="184" height="3" fill="#937d5e" opacity="0.45"/><rect x="1530" y="300" width="184" height="145" fill="#dfbc86"/><rect x="1530" y="300" width="184" height="3" fill="#e5c99e" opacity="0.7"/><rect x="1530" y="442" width="184" height="3" fill="#917a57" opacity="0.45"/><rect x="1720" y="300" width="184" height="145" fill="#d4b37f"/><rect x="1720" y="300" width="184" height="3" fill="#ddc299" opacity="0.7"/><rect x="1720" y="442" width="184" height="3" fill="#8a7453" opacity="0.45"/><rect x="1910" y="300" width="184" height="145" fill="#b89b6f"/><rect x="1910" y="300" width="184" height="3" fill="#c6af8c" opacity="0.7"/><rect x="1910" y="442" width="184" height="3" fill="#786548" opacity="0.45"/><rect x="0" y="445" width="1800" height="5" fill="#816d4e" opacity="0.5"/><rect x="-94.01" y="450" width="184" height="145" fill="#e2c392"/><rect x="-94.01" y="450" width="184" height="3" fill="#e8cfa8" opacity="0.7"/><rect x="-94.01" y="592" width="184" height="3" fill="#937f5f" opacity="0.45"/><rect x="95.99" y="450" width="184" height="145" fill="#ceae7c"/><rect x="95.99" y="450" width="184" height="3" fill="#d8be96" opacity="0.7"/><rect x="95.99" y="592" width="184" height="3" fill="#867151" opacity="0.45"/><rect x="285.99" y="450" width="184" height="145" fill="#d5b480"/><rect x="285.99" y="450" width="184" height="3" fill="#ddc399" opacity="0.7"/><rect x="285.99" y="592" width="184" height="3" fill="#8a7553" opacity="0.45"/><rect x="475.99" y="450" width="184" height="145" fill="#d8b682"/><rect x="475.99" y="450" width="184" height="3" fill="#e0c59b" opacity="0.7"/><rect x="475.99" y="592" width="184" height="3" fill="#8c7655" opacity="0.45"/><rect x="665.99" y="450" width="184" height="145" fill="#e4c597"/><rect x="665.99" y="450" width="184" height="3" fill="#e9d1ac" opacity="0.7"/><rect x="665.99" y="592" width="184" height="3" fill="#948062" opacity="0.45"/><rect x="855.99" y="450" width="184" height="145" fill="#e3c495"/><rect x="855.99" y="450" width="184" height="3" fill="#e9d0aa" opacity="0.7"/><rect x="855.99" y="592" width="184" height="3" fill="#947f61" opacity="0.45"/><rect x="1045.99" y="450" width="184" height="145" fill="#e0bd88"/><rect x="1045.99" y="450" width="184" height="3" fill="#e6caa0" opacity="0.7"/><rect x="1045.99" y="592" width="184" height="3" fill="#927b58" opacity="0.45"/><rect x="1235.99" y="450" width="184" height="145" fill="#e0be8a"/><rect x="1235.99" y="450" width="184" height="3" fill="#e6cba1" opacity="0.7"/><rect x="1235.99" y="592" width="184" height="3" fill="#927c5a" opacity="0.45"/><rect x="1425.99" y="450" width="184" height="145" fill="#b79a6e"/><rect x="1425.99" y="450" width="184" height="3" fill="#c5ae8b" opacity="0.7"/><rect x="1425.99" y="592" width="184" height="3" fill="#776448" opacity="0.45"/><rect x="1615.99" y="450" width="184" height="145" fill="#e2c392"/><rect x="1615.99" y="450" width="184" height="3" fill="#e8cfa8" opacity="0.7"/><rect x="1615.99" y="592" width="184" height="3" fill="#937f5f" opacity="0.45"/><rect x="1805.99" y="450" width="184" height="145" fill="#bea072"/><rect x="1805.99" y="450" width="184" height="3" fill="#cbb38e" opacity="0.7"/><rect x="1805.99" y="592" width="184" height="3" fill="#7c684a" opacity="0.45"/><rect x="1995.99" y="450" width="184" height="145" fill="#c0a273"/><rect x="1995.99" y="450" width="184" height="3" fill="#cdb58f" opacity="0.7"/><rect x="1995.99" y="592" width="184" height="3" fill="#7d694b" opacity="0.45"/><rect x="0" y="595" width="1800" height="5" fill="#816d4e" opacity="0.5"/><rect x="-180" y="600" width="184" height="145" fill="#d6b480"/><rect x="-180" y="600" width="184" height="3" fill="#dec399" opacity="0.7"/><rect x="-180" y="742" width="184" height="3" fill="#8b7553" opacity="0.45"/><rect x="10" y="600" width="184" height="145" fill="#bd9f71"/><rect x="10" y="600" width="184" height="3" fill="#cab28d" opacity="0.7"/><rect x="10" y="742" width="184" height="3" fill="#7b6749" opacity="0.45"/><rect x="200" y="600" width="184" height="145" fill="#b4986c"/><rect x="200" y="600" width="184" height="3" fill="#c3ad89" opacity="0.7"/><rect x="200" y="742" width="184" height="3" fill="#756346" opacity="0.45"/><rect x="390" y="600" width="184" height="145" fill="#e3c495"/><rect x="390" y="600" width="184" height="3" fill="#e9d0aa" opacity="0.7"/><rect x="390" y="742" width="184" height="3" fill="#947f61" opacity="0.45"/><rect x="580" y="600" width="184" height="145" fill="#e0bd88"/><rect x="580" y="600" width="184" height="3" fill="#e6caa0" opacity="0.7"/><rect x="580" y="742" width="184" height="3" fill="#927b58" opacity="0.45"/><rect x="770" y="600" width="184" height="145" fill="#e2c291"/><rect x="770" y="600" width="184" height="3" fill="#e8cea7" opacity="0.7"/><rect x="770" y="742" width="184" height="3" fill="#937e5e" opacity="0.45"/><rect x="960" y="600" width="184" height="145" fill="#e4c698"/><rect x="960" y="600" width="184" height="3" fill="#e9d1ad" opacity="0.7"/><rect x="960" y="742" width="184" height="3" fill="#948163" opacity="0.45"/><rect x="1150" y="600" width="184" height="145" fill="#c3a575"/><rect x="1150" y="600" width="184" height="3" fill="#cfb791" opacity="0.7"/><rect x="1150" y="742" width="184" height="3" fill="#7f6b4c" opacity="0.45"/><rect x="1340" y="600" width="184" height="145" fill="#c9a979"/><rect x="1340" y="600" width="184" height="3" fill="#d4ba94" opacity="0.7"/><rect x="1340" y="742" width="184" height="3" fill="#836e4f" opacity="0.45"/><rect x="1530" y="600" width="184" height="145" fill="#dcb984"/><rect x="1530" y="600" width="184" height="3" fill="#e3c79d" opacity="0.7"/><rect x="1530" y="742" width="184" height="3" fill="#8f7856" opacity="0.45"/><rect x="1720" y="600" width="184" height="145" fill="#d1b17e"/><rect x="1720" y="600" width="184" height="3" fill="#dac198" opacity="0.7"/><rect x="1720" y="742" width="184" height="3" fill="#887352" opacity="0.45"/><rect x="1910" y="600" width="184" height="145" fill="#b99c6f"/><rect x="1910" y="600" width="184" height="3" fill="#c7b08c" opacity="0.7"/><rect x="1910" y="742" width="184" height="3" fill="#786548" opacity="0.45"/><rect x="0" y="745" width="1800" height="5" fill="#816d4e" opacity="0.5"/><rect x="-119.99" y="750" width="184" height="145" fill="#b4976c"/><rect x="-119.99" y="750" width="184" height="3" fill="#c3ac89" opacity="0.7"/><rect x="-119.99" y="892" width="184" height="3" fill="#756246" opacity="0.45"/><rect x="70.01" y="750" width="184" height="145" fill="#debb86"/><rect x="70.01" y="750" width="184" height="3" fill="#e5c99e" opacity="0.7"/><rect x="70.01" y="892" width="184" height="3" fill="#907a57" opacity="0.45"/><rect x="260.01" y="750" width="184" height="145" fill="#bb9e71"/><rect x="260.01" y="750" width="184" height="3" fill="#c9b18d" opacity="0.7"/><rect x="260.01" y="892" width="184" height="3" fill="#7a6749" opacity="0.45"/><rect x="450.01" y="750" width="184" height="145" fill="#b3976b"/><rect x="450.01" y="750" width="184" height="3" fill="#c2ac89" opacity="0.7"/><rect x="450.01" y="892" width="184" height="3" fill="#746246" opacity="0.45"/><rect x="640.01" y="750" width="184" height="145" fill="#ddba85"/><rect x="640.01" y="750" width="184" height="3" fill="#e4c89d" opacity="0.7"/><rect x="640.01" y="892" width="184" height="3" fill="#907956" opacity="0.45"/><rect x="830.01" y="750" width="184" height="145" fill="#d2b17e"/><rect x="830.01" y="750" width="184" height="3" fill="#dbc198" opacity="0.7"/><rect x="830.01" y="892" width="184" height="3" fill="#897352" opacity="0.45"/><rect x="1020.01" y="750" width="184" height="145" fill="#b3976c"/><rect x="1020.01" y="750" width="184" height="3" fill="#c2ac89" opacity="0.7"/><rect x="1020.01" y="892" width="184" height="3" fill="#746246" opacity="0.45"/><rect x="1210.01" y="750" width="184" height="145" fill="#bfa173"/><rect x="1210.01" y="750" width="184" height="3" fill="#ccb48f" opacity="0.7"/><rect x="1210.01" y="892" width="184" height="3" fill="#7c694b" opacity="0.45"/><rect x="1400.01" y="750" width="184" height="145" fill="#e1bf8c"/><rect x="1400.01" y="750" width="184" height="3" fill="#e7cca3" opacity="0.7"/><rect x="1400.01" y="892" width="184" height="3" fill="#927c5b" opacity="0.45"/><rect x="1590.01" y="750" width="184" height="145" fill="#d3b27f"/><rect x="1590.01" y="750" width="184" height="3" fill="#dcc199" opacity="0.7"/><rect x="1590.01" y="892" width="184" height="3" fill="#897453" opacity="0.45"/><rect x="1780.01" y="750" width="184" height="145" fill="#c9a979"/><rect x="1780.01" y="750" width="184" height="3" fill="#d4ba94" opacity="0.7"/><rect x="1780.01" y="892" width="184" height="3" fill="#836e4f" opacity="0.45"/><rect x="1970.01" y="750" width="184" height="145" fill="#dfbc86"/><rect x="1970.01" y="750" width="184" height="3" fill="#e5c99e" opacity="0.7"/><rect x="1970.01" y="892" width="184" height="3" fill="#917a57" opacity="0.45"/><rect x="0" y="895" width="1800" height="5" fill="#816d4e" opacity="0.5"/><rect x="-180" y="900" width="184" height="145" fill="#d9b782"/><rect x="-180" y="900" width="184" height="3" fill="#e1c59b" opacity="0.7"/><rect x="-180" y="1042" width="184" height="3" fill="#8d7755" opacity="0.45"/><rect x="10" y="900" width="184" height="145" fill="#cdad7b"/><rect x="10" y="900" width="184" height="3" fill="#d7bd95" opacity="0.7"/><rect x="10" y="1042" width="184" height="3" fill="#857050" opacity="0.45"/><rect x="200" y="900" width="184" height="145" fill="#e1c18f"/><rect x="200" y="900" width="184" height="3" fill="#e7cda5" opacity="0.7"/><rect x="200" y="1042" width="184" height="3" fill="#927d5d" opacity="0.45"/><rect x="390" y="900" width="184" height="145" fill="#ccac7b"/><rect x="390" y="900" width="184" height="3" fill="#d6bd95" opacity="0.7"/><rect x="390" y="1042" width="184" height="3" fill="#857050" opacity="0.45"/><rect x="580" y="900" width="184" height="145" fill="#e3c393"/><rect x="580" y="900" width="184" height="3" fill="#e9cfa9" opacity="0.7"/><rect x="580" y="1042" width="184" height="3" fill="#947f60" opacity="0.45"/><rect x="770" y="900" width="184" height="145" fill="#c0a274"/><rect x="770" y="900" width="184" height="3" fill="#cdb590" opacity="0.7"/><rect x="770" y="1042" width="184" height="3" fill="#7d694b" opacity="0.45"/><rect x="960" y="900" width="184" height="145" fill="#e1c18e"/><rect x="960" y="900" width="184" height="3" fill="#e7cda5" opacity="0.7"/><rect x="960" y="1042" width="184" height="3" fill="#927d5c" opacity="0.45"/><rect x="1150" y="900" width="184" height="145" fill="#e1c18f"/><rect x="1150" y="900" width="184" height="3" fill="#e7cda5" opacity="0.7"/><rect x="1150" y="1042" width="184" height="3" fill="#927d5d" opacity="0.45"/><rect x="1340" y="900" width="184" height="145" fill="#e2c291"/><rect x="1340" y="900" width="184" height="3" fill="#e8cea7" opacity="0.7"/><rect x="1340" y="1042" width="184" height="3" fill="#937e5e" opacity="0.45"/><rect x="1530" y="900" width="184" height="145" fill="#e0be8a"/><rect x="1530" y="900" width="184" height="3" fill="#e6cba1" opacity="0.7"/><rect x="1530" y="1042" width="184" height="3" fill="#927c5a" opacity="0.45"/><rect x="1720" y="900" width="184" height="145" fill="#e1c08d"/><rect x="1720" y="900" width="184" height="3" fill="#e7cda4" opacity="0.7"/><rect x="1720" y="1042" width="184" height="3" fill="#927d5c" opacity="0.45"/><rect x="1910" y="900" width="184" height="145" fill="#e0bd88"/><rect x="1910" y="900" width="184" height="3" fill="#e6caa0" opacity="0.7"/><rect x="1910" y="1042" width="184" height="3" fill="#927b58" opacity="0.45"/><rect x="0" y="1045" width="1800" height="5" fill="#816d4e" opacity="0.5"/><rect x="-115.38" y="1050" width="184" height="145" fill="#e4c799"/><rect x="-115.38" y="1050" width="184" height="3" fill="#e9d2ad" opacity="0.7"/><rect x="-115.38" y="1192" width="184" height="3" fill="#948163" opacity="0.45"/><rect x="74.62" y="1050" width="184" height="145" fill="#e2c393"/><rect x="74.62" y="1050" width="184" height="3" fill="#e8cfa9" opacity="0.7"/><rect x="74.62" y="1192" width="184" height="3" fill="#937f60" opacity="0.45"/><rect x="264.62" y="1050" width="184" height="145" fill="#b79b6e"/><rect x="264.62" y="1050" width="184" height="3" fill="#c5af8b" opacity="0.7"/><rect x="264.62" y="1192" width="184" height="3" fill="#776548" opacity="0.45"/><rect x="454.62" y="1050" width="184" height="145" fill="#e1c18e"/><rect x="454.62" y="1050" width="184" height="3" fill="#e7cda5" opacity="0.7"/><rect x="454.62" y="1192" width="184" height="3" fill="#927d5c" opacity="0.45"/><rect x="644.62" y="1050" width="184" height="145" fill="#dfbc86"/><rect x="644.62" y="1050" width="184" height="3" fill="#e5c99e" opacity="0.7"/><rect x="644.62" y="1192" width="184" height="3" fill="#917a57" opacity="0.45"/><rect x="834.62" y="1050" width="184" height="145" fill="#e3c596"/><rect x="834.62" y="1050" width="184" height="3" fill="#e9d1ab" opacity="0.7"/><rect x="834.62" y="1192" width="184" height="3" fill="#948062" opacity="0.45"/><rect x="1024.62" y="1050" width="184" height="145" fill="#caaa79"/><rect x="1024.62" y="1050" width="184" height="3" fill="#d5bb94" opacity="0.7"/><rect x="1024.62" y="1192" width="184" height="3" fill="#836f4f" opacity="0.45"/><rect x="1214.62" y="1050" width="184" height="145" fill="#dbb984"/><rect x="1214.62" y="1050" width="184" height="3" fill="#e2c79d" opacity="0.7"/><rect x="1214.62" y="1192" width="184" height="3" fill="#8e7856" opacity="0.45"/><rect x="1404.62" y="1050" width="184" height="145" fill="#cfaf7d"/><rect x="1404.62" y="1050" width="184" height="3" fill="#d9bf97" opacity="0.7"/><rect x="1404.62" y="1192" width="184" height="3" fill="#877251" opacity="0.45"/><rect x="1594.62" y="1050" width="184" height="145" fill="#e2c393"/><rect x="1594.62" y="1050" width="184" height="3" fill="#e8cfa9" opacity="0.7"/><rect x="1594.62" y="1192" width="184" height="3" fill="#937f60" opacity="0.45"/><rect x="1784.62" y="1050" width="184" height="145" fill="#e0be8a"/><rect x="1784.62" y="1050" width="184" height="3" fill="#e6cba1" opacity="0.7"/><rect x="1784.62" y="1192" width="184" height="3" fill="#927c5a" opacity="0.45"/><rect x="1974.62" y="1050" width="184" height="145" fill="#e1c08e"/><rect x="1974.62" y="1050" width="184" height="3" fill="#e7cda5" opacity="0.7"/><rect x="1974.62" y="1192" width="184" height="3" fill="#927d5c" opacity="0.45"/><rect x="0" y="1195" width="1800" height="5" fill="#816d4e" opacity="0.5"/><g filter="url(#dsoft)" opacity="0.5"><ellipse cx="299.42" cy="-195.04" rx="51.06" ry="10.7" fill="#1E1A14" transform="rotate(28.19 299.42 -195.04)"/><ellipse cx="111.74" cy="716.28" rx="51.42" ry="14.54" fill="#1E1A14" transform="rotate(35.1 111.74 716.28)"/><ellipse cx="42.22" cy="600.38" rx="40.15" ry="19.7" fill="#1E1A14" transform="rotate(-4.52 42.22 600.38)"/><ellipse cx="451.76" cy="625.6" rx="37.43" ry="16.68" fill="#1E1A14" transform="rotate(-39.21 451.76 625.6)"/><ellipse cx="681.19" cy="473.71" rx="23.55" ry="17.52" fill="#1E1A14" transform="rotate(15.78 681.19 473.71)"/><ellipse cx="7.88" cy="-122.17" rx="32.76" ry="22.41" fill="#1E1A14" transform="rotate(-21.62 7.88 -122.17)"/><ellipse cx="518.9" cy="258.59" rx="44.59" ry="15.11" fill="#1E1A14" transform="rotate(57.42 518.9 258.59)"/><ellipse cx="184.01" cy="779.65" rx="33.77" ry="17.58" fill="#1E1A14" transform="rotate(33.49 184.01 779.65)"/><ellipse cx="384.66" cy="440.3" rx="34.98" ry="22.37" fill="#1E1A14" transform="rotate(12.89 384.66 440.3)"/><ellipse cx="-226.99" cy="108.62" rx="38.72" ry="22.95" fill="#1E1A14" transform="rotate(-3.5 -226.99 108.62)"/><ellipse cx="367.26" cy="79.53" rx="33.52" ry="20.31" fill="#1E1A14" transform="rotate(4.77 367.26 79.53)"/><ellipse cx="460.39" cy="85.15" rx="42.67" ry="14.38" fill="#1E1A14" transform="rotate(-34.09 460.39 85.15)"/><ellipse cx="667.03" cy="410.64" rx="23.25" ry="14.31" fill="#1E1A14" transform="rotate(35.01 667.03 410.64)"/><ellipse cx="423.88" cy="335.93" rx="44.48" ry="10.82" fill="#1E1A14" transform="rotate(-54.68 423.88 335.93)"/><ellipse cx="169.35" cy="706.27" rx="47.07" ry="11.04" fill="#1E1A14" transform="rotate(-50.42 169.35 706.27)"/><ellipse cx="582.04" cy="500.18" rx="39.45" ry="12.03" fill="#1E1A14" transform="rotate(-10.28 582.04 500.18)"/><ellipse cx="646.6" cy="476.42" rx="51.49" ry="19.99" fill="#1E1A14" transform="rotate(-19.79 646.6 476.42)"/><ellipse cx="118.63" cy="15.82" rx="30.37" ry="13.52" fill="#1E1A14" transform="rotate(44.39 118.63 15.82)"/><ellipse cx="61.54" cy="-1.1" rx="39.29" ry="16.7" fill="#1E1A14" transform="rotate(47.39 61.54 -1.1)"/><ellipse cx="281.23" cy="131.24" rx="28.22" ry="21.38" fill="#1E1A14" transform="rotate(-51.96 281.23 131.24)"/><ellipse cx="-42.76" cy="731.27" rx="47.61" ry="14.66" fill="#1E1A14" transform="rotate(26.96 -42.76 731.27)"/><ellipse cx="472.24" cy="549.68" rx="57.35" ry="23.51" fill="#1E1A14" transform="rotate(-58.48 472.24 549.68)"/><ellipse cx="655.53" cy="332.35" rx="51.72" ry="10.78" fill="#1E1A14" transform="rotate(-33.12 655.53 332.35)"/><ellipse cx="517.68" cy="362.1" rx="56.07" ry="14.72" fill="#1E1A14" transform="rotate(9.91 517.68 362.1)"/><ellipse cx="249.33" cy="-324.12" rx="37.31" ry="13.73" fill="#1E1A14" transform="rotate(-45.26 249.33 -324.12)"/><ellipse cx="160.84" cy="44.99" rx="48.9" ry="11.16" fill="#1E1A14" transform="rotate(54.89 160.84 44.99)"/><ellipse cx="-63.38" cy="409.23" rx="31.17" ry="24.79" fill="#1E1A14" transform="rotate(-57.5 -63.38 409.23)"/><ellipse cx="554.89" cy="-110.13" rx="46.32" ry="14.38" fill="#1E1A14" transform="rotate(19.17 554.89 -110.13)"/><ellipse cx="-121.26" cy="527.83" rx="46.27" ry="19.53" fill="#1E1A14" transform="rotate(30.53 -121.26 527.83)"/><ellipse cx="286.09" cy="505.91" rx="36.77" ry="18.62" fill="#1E1A14" transform="rotate(8.09 286.09 505.91)"/><ellipse cx="171.82" cy="9.75" rx="32.49" ry="21.57" fill="#1E1A14" transform="rotate(-48.08 171.82 9.75)"/><ellipse cx="234.43" cy="836.86" rx="34.37" ry="18.88" fill="#1E1A14" transform="rotate(-2.74 234.43 836.86)"/><ellipse cx="221.48" cy="549.04" rx="50.49" ry="19.1" fill="#1E1A14" transform="rotate(31.13 221.48 549.04)"/><ellipse cx="-102.07" cy="149.55" rx="35.52" ry="15.22" fill="#1E1A14" transform="rotate(-12.15 -102.07 149.55)"/><ellipse cx="-87.62" cy="23.08" rx="56.96" ry="25.04" fill="#1E1A14" transform="rotate(-32.74 -87.62 23.08)"/><ellipse cx="393.15" cy="-254.2" rx="50.53" ry="22.46" fill="#1E1A14" transform="rotate(45.36 393.15 -254.2)"/><ellipse cx="-23.79" cy="591.88" rx="57.38" ry="25" fill="#1E1A14" transform="rotate(-11.16 -23.79 591.88)"/><ellipse cx="442.4" cy="253.99" rx="49.36" ry="12.83" fill="#1E1A14" transform="rotate(-55.32 442.4 253.99)"/><ellipse cx="191.3" cy="-125.91" rx="27.23" ry="18.45" fill="#1E1A14" transform="rotate(11.77 191.3 -125.91)"/><ellipse cx="381.09" cy="476.74" rx="42.53" ry="13.87" fill="#1E1A14" transform="rotate(-0.38 381.09 476.74)"/><ellipse cx="-121.98" cy="733.71" rx="51.75" ry="16.88" fill="#1E1A14" transform="rotate(20.43 -121.98 733.71)"/><ellipse cx="217.03" cy="466.8" rx="51.79" ry="17.39" fill="#1E1A14" transform="rotate(-45.61 217.03 466.8)"/><ellipse cx="-218.18" cy="393.94" rx="36.31" ry="10.8" fill="#1E1A14" transform="rotate(-25.41 -218.18 393.94)"/><ellipse cx="-38.87" cy="628.65" rx="56.34" ry="15.93" fill="#1E1A14" transform="rotate(-25.72 -38.87 628.65)"/><ellipse cx="626.77" cy="-4.18" rx="47.56" ry="15.88" fill="#1E1A14" transform="rotate(-34.01 626.77 -4.18)"/><ellipse cx="251.55" cy="-186" rx="42.76" ry="17" fill="#1E1A14" transform="rotate(-23.08 251.55 -186)"/><ellipse cx="99.36" cy="38.22" rx="57.29" ry="10.83" fill="#1E1A14" transform="rotate(-29.76 99.36 38.22)"/><ellipse cx="552.82" cy="560.92" rx="24.64" ry="10.41" fill="#1E1A14" transform="rotate(28.34 552.82 560.92)"/><ellipse cx="-337.52" cy="389.53" rx="30.19" ry="16.53" fill="#1E1A14" transform="rotate(-32.05 -337.52 389.53)"/><ellipse cx="-96.27" cy="15.69" rx="52.51" ry="14.18" fill="#1E1A14" transform="rotate(-24.19 -96.27 15.69)"/><ellipse cx="631.77" cy="-11.01" rx="37.58" ry="12.5" fill="#1E1A14" transform="rotate(-23.45 631.77 -11.01)"/><ellipse cx="123.91" cy="-278.41" rx="54.46" ry="23.44" fill="#1E1A14" transform="rotate(-14.86 123.91 -278.41)"/><ellipse cx="164.47" cy="-71.81" rx="23.72" ry="24.6" fill="#1E1A14" transform="rotate(36.94 164.47 -71.81)"/><ellipse cx="581.63" cy="633.31" rx="46.22" ry="21.61" fill="#1E1A14" transform="rotate(-8.69 581.63 633.31)"/><ellipse cx="231.4" cy="2.54" rx="23.3" ry="12.16" fill="#1E1A14" transform="rotate(-1.9 231.4 2.54)"/><ellipse cx="151.43" cy="345.75" rx="42.79" ry="21.71" fill="#1E1A14" transform="rotate(-51.58 151.43 345.75)"/><ellipse cx="-238.57" cy="122.96" rx="51.6" ry="11.12" fill="#1E1A14" transform="rotate(-50.2 -238.57 122.96)"/><ellipse cx="185.28" cy="338.3" rx="25.57" ry="11.73" fill="#1E1A14" transform="rotate(18.41 185.28 338.3)"/><ellipse cx="-16.41" cy="51.15" rx="34.4" ry="10.86" fill="#1E1A14" transform="rotate(22.48 -16.41 51.15)"/><ellipse cx="-166.39" cy="696.27" rx="22.93" ry="19.36" fill="#1E1A14" transform="rotate(-49.19 -166.39 696.27)"/><ellipse cx="679.11" cy="117.75" rx="51.15" ry="22.76" fill="#1E1A14" transform="rotate(55.15 679.11 117.75)"/><ellipse cx="251.19" cy="200.43" rx="48.78" ry="16.62" fill="#1E1A14" transform="rotate(5.66 251.19 200.43)"/><ellipse cx="426.29" cy="-127.89" rx="30.28" ry="22.13" fill="#1E1A14" transform="rotate(-31.34 426.29 -127.89)"/><ellipse cx="203.39" cy="765.2" rx="56" ry="16" fill="#1E1A14" transform="rotate(46.35 203.39 765.2)"/></g><rect x="0" y="0" width="1800" height="1200" fill="url(#rake)"/>
<rect x="0" y="0" width="1800" height="1200" fill="url(#vig)"/>
<rect x="0" y="0" width="1800" height="1200" fill="url(#vg)" opacity="0.15" style="mix-blend-mode:overlay"/>
</svg>