<svg xmlns="http://www.w3.org/2000/svg" viewBox="0 0 1800 1200" width="1800" height="1200" role="img">
<defs><linearGradient id="rake" x1="0" y1="0" x2="1" y2="0"><stop offset="0%" stop-color="#FFE9C6" stop-opacity="0.18"/><stop offset="42%" stop-color="#ffffff" stop-opacity="0"/><stop offset="100%" stop-color="#0A0806" stop-opacity="0.34"/></linearGradient><filter id="dsoft" x="-25%" y="-25%" width="150%" height="150%"><feGaussianBlur stdDeviation="18"/></filter><filter id="vg-f" x="0" y="0" width="100%" height="100%"><feTurbulence type="fractalNoise" baseFrequency="0.9" numOctaves="3" stitchTiles="stitch"/><feColorMatrix type="saturate" values="0"/></filter>
<pattern id="vg" width="120" height="120" patternUnits="userSpaceOnUse"><rect width="120" height="120" filter="url(#vg-f)" opacity="1"/></pattern><radialGradient id="vig" cx="50%" cy="42%" r="80%"><stop offset="52%" stop-color="#000000" stop-opacity="0"/><stop offset="100%" stop-color="#0A0806" stop-opacity="0.48"/></radialGradient></defs>
<rect x="0" y="0" width="1800" height="1200" fill="#faddaf"/><rect x="0" y="352.3" width="1800" height="108.85" fill="#f1c081" opacity="0.34"/><rect x="0" y="467.16" width="1800" height="70.13" fill="#f1c081" opacity="0.33"/><rect x="0" y="1022.12" width="1800" height="84.52" fill="#f1c081" opacity="0.33"/><rect x="0" y="833.3" width="1800" height="90.71" fill="#f1c081" opacity="0.36"/><rect x="0" y="981.33" width="1800" height="112.09" fill="#f1c081" opacity="0.32"/><rect x="0" y="85.66" width="1800" height="73.31" fill="#f1c081" opacity="0.27"/><rect x="0" y="74.97" width="1800" height="125.36" fill="#f1c081" opacity="0.19"/><rect x="16" y="16" width="418" height="268" fill="#fbe3ba" opacity="0.66"/><rect x="16" y="50.29" width="418" height="8" fill="#514e48" opacity="0.75"/><rect x="16" y="88.57" width="418" height="8" fill="#514e48" opacity="0.75"/><rect x="16" y="126.86" width="418" height="8" fill="#514e48" opacity="0.75"/><rect x="16" y="165.14" width="418" height="8" fill="#514e48" opacity="0.75"/><rect x="16" y="203.43" width="418" height="8" fill="#514e48" opacity="0.75"/><rect x="16" y="241.71" width="418" height="8" fill="#514e48" opacity="0.75"/><rect x="16" y="316" width="418" height="268" fill="#fbe3ba" opacity="0.43"/><rect x="16" y="379" width="418" height="8" fill="#514e48" opacity="0.75"/><rect x="16" y="446" width="418" height="8" fill="#514e48" opacity="0.75"/><rect x="16" y="513" width="418" height="8" fill="#514e48" opacity="0.75"/><rect x="16" y="616" width="418" height="268" fill="#fbe3ba" opacity="0.69"/><rect x="16" y="650.29" width="418" height="8" fill="#514e48" opacity="0.75"/><rect x="16" y="688.57" width="418" height="8" fill="#514e48" opacity="0.75"/><rect x="16" y="726.86" width="418" height="8" fill="#514e48" opacity="0.75"/><rect x="16" y="765.14" width="418" height="8" fill="#514e48" opacity="0.75"/><rect x="16" y="803.43" width="418" height="8" fill="#514e48" opacity="0.75"/><rect x="16" y="841.71" width="418" height="8" fill="#514e48" opacity="0.75"/><rect x="16" y="916" width="418" height="268" fill="#fbe3ba" opacity="0.46"/><rect x="16" y="950.29" width="418" height="8" fill="#514e48" opacity="0.75"/><rect x="16" y="988.57" width="418" height="8" fill="#514e48" opacity="0.75"/><rect x="16" y="1026.86" width="418" height="8" fill="#514e48" opacity="0.75"/><rect x="16" y="1065.14" width="418" height="8" fill="#514e48" opacity="0.75"/><rect x="16" y="1103.43" width="418" height="8" fill="#514e48" opacity="0.75"/><rect x="16" y="1141.71" width="418" height="8" fill="#514e48" opacity="0.75"/><rect x="466" y="16" width="418" height="268" fill="#514e48" opacity="0.92"/><rect x="466" y="316" width="418" height="268" fill="#514e48" opacity="0.92"/><rect x="466" y="616" width="418" height="268" fill="#fbe3ba" opacity="0.52"/><rect x="466" y="656.67" width="418" height="8" fill="#514e48" opacity="0.75"/><rect x="466" y="701.33" width="418" height="8" fill="#514e48" opacity="0.75"/><rect x="466" y="746" width="418" height="8" fill="#514e48" opacity="0.75"/><rect x="466" y="790.67" width="418" height="8" fill="#514e48" opacity="0.75"/><rect x="466" y="835.33" width="418" height="8" fill="#514e48" opacity="0.75"/><rect x="466" y="916" width="418" height="268" fill="#fbe3ba" opacity="0.47"/><rect x="466" y="956.67" width="418" height="8" fill="#514e48" opacity="0.75"/><rect x="466" y="1001.33" width="418" height="8" fill="#514e48" opacity="0.75"/><rect x="466" y="1046" width="418" height="8" fill="#514e48" opacity="0.75"/><rect x="466" y="1090.67" width="418" height="8" fill="#514e48" opacity="0.75"/><rect x="466" y="1135.33" width="418" height="8" fill="#514e48" opacity="0.75"/><rect x="916" y="16" width="418" height="268" fill="#fbe3ba" opacity="0.78"/><rect x="916" y="65.6" width="418" height="8" fill="#514e48" opacity="0.75"/><rect x="916" y="119.2" width="418" height="8" fill="#514e48" opacity="0.75"/><rect x="916" y="172.8" width="418" height="8" fill="#514e48" opacity="0.75"/><rect x="916" y="226.4" width="418" height="8" fill="#514e48" opacity="0.75"/><rect x="916" y="316" width="418" height="268" fill="#fbe3ba" opacity="0.56"/><rect x="916" y="379" width="418" height="8" fill="#514e48" opacity="0.75"/><rect x="916" y="446" width="418" height="8" fill="#514e48" opacity="0.75"/><rect x="916" y="513" width="418" height="8" fill="#514e48" opacity="0.75"/><rect x="916" y="616" width="418" height="268" fill="#fbe3ba" opacity="0.42"/><rect x="916" y="650.29" width="418" height="8" fill="#514e48" opacity="0.75"/><rect x="916" y="688.57" width="418" height="8" fill="#514e48" opacity="0.75"/><rect x="916" y="726.86" width="418" height="8" fill="#514e48" opacity="0.75"/><rect x="916" y="765.14" width="418" height="8" fill="#514e48" opacity="0.75"/><rect x="916" y="803.43" width="418" height="8" fill="#514e48" opacity="0.75"/><rect x="916" y="841.71" width="418" height="8" fill="#514e48" opacity="0.75"/><rect x="916" y="916" width="418" height="268" fill="#fbe3ba" opacity="0.74"/><rect x="916" y="979" width="418" height="8" fill="#514e48" opacity="0.75"/><rect x="916" y="1046" width="418" height="8" fill="#514e48" opacity="0.75"/><rect x="916" y="1113" width="418" height="8" fill="#514e48" opacity="0.75"/><rect x="1366" y="16" width="418" height="268" fill="#fbe3ba" opacity="0.32"/><rect x="1366" y="50.29" width="418" height="8" fill="#514e48" opacity="0.75"/><rect x="1366" y="88.57" width="418" height="8" fill="#514e48" opacity="0.75"/><rect x="1366" y="126.86" width="418" height="8" fill="#514e48" opacity="0.75"/><rect x="1366" y="165.14" width="418" height="8" fill="#514e48" opacity="0.75"/><rect x="1366" y="203.43" width="418" height="8" fill="#514e48" opacity="0.75"/><rect x="1366" y="241.71" width="418" height="8" fill="#514e48" opacity="0.75"/><rect x="1366" y="316" width="418" height="268" fill="#fbe3ba" opacity="0.55"/><rect x="1366" y="356.67" width="418" height="8" fill="#514e48" opacity="0.75"/><rect x="1366" y="401.33" width="418" height="8" fill="#514e48" opacity="0.75"/><rect x="1366" y="446" width="418" height="8" fill="#514e48" opacity="0.75"/><rect x="1366" y="490.67" width="418" height="8" fill="#514e48" opacity="0.75"/><rect x="1366" y="535.33" width="418" height="8" fill="#514e48" opacity="0.75"/><rect x="1366" y="616" width="418" height="268" fill="#fbe3ba" opacity="0.52"/><rect x="1366" y="656.67" width="418" height="8" fill="#514e48" opacity="0.75"/><rect x="1366" y="701.33" width="418" height="8" fill="#514e48" opacity="0.75"/><rect x="1366" y="746" width="418" height="8" fill="#514e48" opacity="0.75"/><rect x="1366" y="790.67" width="418" height="8" fill="#514e48" opacity="0.75"/><rect x="1366" y="835.33" width="418" height="8" fill="#514e48" opacity="0.75"/><rect x="1366" y="916" width="418" height="268" fill="#514e48" opacity="0.92"/><rect x="-9" y="0" width="18" height="1200" fill="#514e48"/><rect x="441" y="0" width="18" height="1200" fill="#514e48"/><rect x="891" y="0" width="18" height="1200" fill="#514e48"/><rect x="1341" y="0" width="18" height="1200" fill="#514e48"/><rect x="1791" y="0" width="18" height="1200" fill="#514e48"/><rect x="0" y="-9" width="1800" height="18" fill="#5b5953"/><rect x="0" y="291" width="1800" height="18" fill="#5b5953"/><rect x="0" y="591" width="1800" height="18" fill="#5b5953"/><rect x="0" y="891" width="1800" height="18" fill="#5b5953"/><rect x="0" y="1191" width="1800" height="18" fill="#5b5953"/><rect x="0" y="0" width="1800" height="1200" fill="url(#rake)"/>
<rect x="0" y="0" width="1800" height="1200" fill="url(#vig)"/>
<rect x="0" y="0" width="1800" height="1200" fill="url(#vg)" opacity="0.15" style="mix-blend-mode:overlay"/>
</svg>