<svg xmlns="http://www.w3.org/2000/svg" viewBox="0 0 1800 1200" width="1800" height="1200" role="img">
<defs><linearGradient id="wall" x1="0" y1="0" x2="0" y2="1"><stop offset="0%" stop-color="#3f3f43" stop-opacity="1"/><stop offset="100%" stop-color="#1E1E22" stop-opacity="1"/></linearGradient><linearGradient id="flr" x1="0" y1="0" x2="0" y2="1"><stop offset="0%" stop-color="#332C26" stop-opacity="1"/><stop offset="100%" stop-color="#4A4038" stop-opacity="1"/></linearGradient><linearGradient id="shaft" x1="0" y1="0" x2="1" y2="0"><stop offset="0%" stop-color="#EAD9BC" stop-opacity="0.55"/><stop offset="100%" stop-color="#EAD9BC" stop-opacity="0"/></linearGradient><filter id="sblur" x="-25%" y="-25%" width="150%" height="150%"><feGaussianBlur stdDeviation="26"/></filter><filter id="vg-f" x="0" y="0" width="100%" height="100%"><feTurbulence type="fractalNoise" baseFrequency="0.9" numOctaves="3" stitchTiles="stitch"/><feColorMatrix type="saturate" values="0"/></filter>
<pattern id="vg" width="120" height="120" patternUnits="userSpaceOnUse"><rect width="120" height="120" filter="url(#vg-f)" opacity="1"/></pattern><radialGradient id="vig" cx="50%" cy="42%" r="80%"><stop offset="52%" stop-color="#000000" stop-opacity="0"/><stop offset="100%" stop-color="#0A0806" stop-opacity="0.48"/></radialGradient></defs>
<rect x="0" y="0" width="1800" height="1200" fill="url(#wall)"/><rect x="0" y="0" width="1800" height="112.02" fill="#48484b"/><rect x="0" y="112.02" width="1800" height="3" fill="#222225" opacity="0.5"/><rect x="0" y="795.31" width="1800" height="404.69" fill="url(#flr)"/><rect x="0" y="781.31" width="1800" height="14" fill="#222226"/><rect x="0" y="795.31" width="1800" height="3" fill="#26211d" opacity="0.6"/><rect x="0" y="840.27" width="1800" height="1.4" fill="#2b2520" opacity="0.3"/><rect x="0" y="885.24" width="1800" height="1.4" fill="#2b2520" opacity="0.3"/><rect x="0" y="930.21" width="1800" height="1.4" fill="#2b2520" opacity="0.3"/><rect x="0" y="975.17" width="1800" height="1.4" fill="#2b2520" opacity="0.3"/><rect x="0" y="1020.14" width="1800" height="1.4" fill="#2b2520" opacity="0.3"/><rect x="0" y="1065.1" width="1800" height="1.4" fill="#2b2520" opacity="0.3"/><rect x="0" y="1110.07" width="1800" height="1.4" fill="#2b2520" opacity="0.3"/><rect x="0" y="1155.03" width="1800" height="1.4" fill="#2b2520" opacity="0.3"/><rect x="131.72" y="136.02" width="459.36" height="645.17" fill="#202023"/><path d="M143.72,779.19 L143.72,365.7 A217.68,217.68 0 0 1 579.08,365.7 L579.08,779.19 Z" fill="#EAD9BC"/><rect x="358.4" y="365.7" width="6" height="413.49" fill="#0E0E11" opacity="0.5"/><rect x="143.72" y="535.06" width="435.36" height="5" fill="#0E0E11" opacity="0.38"/><polygon points="143.72,795.31 579.08,795.31 1119.08,1200 359.72,1200" fill="url(#shaft)" opacity="0.5"/><rect x="765.36" y="556.54" width="665.28" height="279.24" fill="#63615e"/><rect x="898.42" y="556.54" width="2.5" height="279.24" fill="#53514e" opacity="0.6"/><rect x="1031.47" y="556.54" width="2.5" height="279.24" fill="#53514e" opacity="0.6"/><rect x="1164.53" y="556.54" width="2.5" height="279.24" fill="#53514e" opacity="0.6"/><rect x="1297.58" y="556.54" width="2.5" height="279.24" fill="#53514e" opacity="0.6"/><rect x="714" y="1021.94" width="768" height="12" fill="#000000" opacity="0.16"/><rect x="720" y="835.78" width="756" height="186.16" fill="#65625e"/><rect x="720" y="835.78" width="756" height="55.85" fill="#deceb3"/><rect x="720" y="940.03" width="756" height="26.06" fill="#474440"/><rect x="780.48" y="794.82" width="287.28" height="48.4" fill="#e5d5b8"/><rect x="1128.24" y="794.82" width="287.28" height="48.4" fill="#e5d5b8"/><rect x="585" y="932.9" width="99" height="97.13" fill="#3C3A37"/><rect x="606.6" y="900.53" width="54" height="32.38" fill="#d7c8ad"/><rect x="631.8" y="916.72" width="3" height="20.23" fill="#C8A46A"/><rect x="1512" y="932.9" width="99" height="97.13" fill="#3C3A37"/><rect x="1533.6" y="900.53" width="54" height="32.38" fill="#d7c8ad"/><rect x="1558.8" y="916.72" width="3" height="20.23" fill="#C8A46A"/><rect x="1557.83" y="579.31" width="4" height="337.41" fill="#3C3A37"/><polygon points="1531.83,579.31 1587.83,579.31 1578.83,483.31 1540.83,483.31" fill="#deceb3"/><ellipse cx="1559.83" cy="585.31" rx="26" ry="7" fill="#f5e0bc" opacity="0.5"/><rect x="964.07" y="184.02" width="310.12" height="266.56" fill="#232327"/><rect x="973.07" y="193.02" width="292.12" height="248.56" fill="#cead79" opacity="0.55"/>
<rect x="0" y="0" width="1800" height="1200" fill="url(#vig)"/>
<rect x="0" y="0" width="1800" height="1200" fill="url(#vg)" opacity="0.15" style="mix-blend-mode:overlay"/>
</svg>