<svg xmlns="http://www.w3.org/2000/svg" viewBox="0 0 1800 1200" width="1800" height="1200" role="img">
<defs><linearGradient id="wall" x1="0" y1="0" x2="0" y2="1"><stop offset="0%" stop-color="#e1dfd7" stop-opacity="1"/><stop offset="100%" stop-color="#C6C2B8" stop-opacity="1"/></linearGradient><linearGradient id="flr" x1="0" y1="0" x2="0" y2="1"><stop offset="0%" stop-color="#8C887E" stop-opacity="1"/><stop offset="100%" stop-color="#A8A499" stop-opacity="1"/></linearGradient><linearGradient id="shaft" x1="0" y1="0" x2="1" y2="0"><stop offset="0%" stop-color="#F7F5EF" stop-opacity="0.55"/><stop offset="100%" stop-color="#F7F5EF" stop-opacity="0"/></linearGradient><filter id="sblur" x="-25%" y="-25%" width="150%" height="150%"><feGaussianBlur stdDeviation="26"/></filter><filter id="vg-f" x="0" y="0" width="100%" height="100%"><feTurbulence type="fractalNoise" baseFrequency="0.9" numOctaves="3" stitchTiles="stitch"/><feColorMatrix type="saturate" values="0"/></filter>
<pattern id="vg" width="120" height="120" patternUnits="userSpaceOnUse"><rect width="120" height="120" filter="url(#vg-f)" opacity="1"/></pattern><radialGradient id="vig" cx="50%" cy="42%" r="80%"><stop offset="52%" stop-color="#000000" stop-opacity="0"/><stop offset="100%" stop-color="#0A0806" stop-opacity="0.48"/></radialGradient></defs>
<rect x="0" y="0" width="1800" height="1200" fill="url(#wall)"/><rect x="0" y="0" width="1800" height="71.43" fill="#e3e0d9"/><rect x="0" y="71.43" width="1800" height="3" fill="#b2afa9" opacity="0.5"/><rect x="0" y="716.03" width="1800" height="483.97" fill="url(#flr)"/><rect x="0" y="702.03" width="1800" height="14" fill="#b6b4ad"/><rect x="0" y="716.03" width="1800" height="3" fill="#69665f" opacity="0.6"/><rect x="0" y="769.81" width="1800" height="1.4" fill="#76726a" opacity="0.3"/><rect x="0" y="823.58" width="1800" height="1.4" fill="#76726a" opacity="0.3"/><rect x="0" y="877.36" width="1800" height="1.4" fill="#76726a" opacity="0.3"/><rect x="0" y="931.13" width="1800" height="1.4" fill="#76726a" opacity="0.3"/><rect x="0" y="984.9" width="1800" height="1.4" fill="#76726a" opacity="0.3"/><rect x="0" y="1038.68" width="1800" height="1.4" fill="#76726a" opacity="0.3"/><rect x="0" y="1092.45" width="1800" height="1.4" fill="#76726a" opacity="0.3"/><rect x="0" y="1146.23" width="1800" height="1.4" fill="#76726a" opacity="0.3"/><rect x="1027.85" y="95.43" width="498.9" height="585.33" fill="#a9a6a0"/><path d="M1039.85,678.76 L1039.85,344.88 A237.45,237.45 0 0 1 1514.75,344.88 L1514.75,678.76 Z" fill="#F7F5EF"/><rect x="1155.57" y="344.88" width="6" height="333.88" fill="#33322E" opacity="0.5"/><rect x="1274.3" y="344.88" width="6" height="333.88" fill="#33322E" opacity="0.5"/><rect x="1393.03" y="344.88" width="6" height="333.88" fill="#33322E" opacity="0.5"/><rect x="1039.85" y="484.22" width="474.9" height="5" fill="#33322E" opacity="0.38"/><polygon points="1039.85,716.03 1514.75,716.03 974.75,1200 823.85,1200" fill="url(#shaft)" opacity="0.5"/><rect x="216" y="861.22" width="1188" height="300.06" fill="#C3BFB4" opacity="0.7"/><rect x="100" y="928.98" width="592" height="12" fill="#000000" opacity="0.16"/><rect x="108" y="703.94" width="576" height="87.11" fill="#85827a"/><rect x="108" y="783.79" width="576" height="145.19" fill="#7C7970"/><rect x="148.32" y="717" width="126.72" height="60.98" fill="#c9c6bc"/><rect x="326.88" y="717" width="126.72" height="60.98" fill="#c7c4ba"/><rect x="505.44" y="717" width="126.72" height="60.98" fill="#c6c2b8"/><rect x="154.08" y="928.98" width="28.8" height="43.56" fill="#5A5852"/><rect x="609.12" y="928.98" width="28.8" height="43.56" fill="#5A5852"/><ellipse cx="486" cy="1035.45" rx="153" ry="48.4" fill="#000000" opacity="0.16"/><ellipse cx="486" cy="1006.41" rx="153" ry="41.14" fill="#918e87"/><rect x="482" y="1016.09" width="8" height="96.79" fill="#5A5852"/><rect x="453.6" y="979.8" width="19.8" height="26.62" fill="#A08C6A"/><rect x="264.45" y="500.03" width="4" height="361.19" fill="#5A5852"/><polygon points="238.45,500.03 294.45,500.03 285.45,404.03 247.45,404.03" fill="#ebe9e3"/><ellipse cx="266.45" cy="506.03" rx="26" ry="7" fill="#fbeed6" opacity="0.5"/><rect x="526.32" y="143.43" width="261.03" height="260.23" fill="#bab8b1"/><rect x="535.32" y="152.43" width="243.03" height="242.23" fill="#b6a68c" opacity="0.55"/>
<rect x="0" y="0" width="1800" height="1200" fill="url(#vig)"/>
<rect x="0" y="0" width="1800" height="1200" fill="url(#vg)" opacity="0.15" style="mix-blend-mode:overlay"/>
</svg>