<svg xmlns="http://www.w3.org/2000/svg" viewBox="0 0 1200 1500" width="1200" height="1500" role="img">
<defs><radialGradient id="pg" cx="30%" cy="32%" r="92%"><stop offset="0%" stop-color="#656866" stop-opacity="1"/><stop offset="100%" stop-color="#1d201e" stop-opacity="1"/></radialGradient><radialGradient id="key" cx="30%" cy="22%" r="58%"><stop offset="0%" stop-color="#FFF1DA" stop-opacity="0.34"/><stop offset="100%" stop-color="#FFF1DA" stop-opacity="0"/></radialGradient><filter id="figure" x="-25%" y="-25%" width="150%" height="150%"><feGaussianBlur stdDeviation="13"/></filter><filter id="feat" x="-25%" y="-25%" width="150%" height="150%"><feGaussianBlur stdDeviation="9"/></filter><filter id="rim" x="-25%" y="-25%" width="150%" height="150%"><feGaussianBlur stdDeviation="34"/></filter><filter id="vg-f" x="0" y="0" width="100%" height="100%"><feTurbulence type="fractalNoise" baseFrequency="0.9" numOctaves="3" stitchTiles="stitch"/><feColorMatrix type="saturate" values="0"/></filter>
<pattern id="vg" width="120" height="120" patternUnits="userSpaceOnUse"><rect width="120" height="120" filter="url(#vg-f)" opacity="1"/></pattern><radialGradient id="vig" cx="50%" cy="42%" r="80%"><stop offset="52%" stop-color="#000000" stop-opacity="0"/><stop offset="100%" stop-color="#0A0806" stop-opacity="0.46"/></radialGradient></defs>
<rect x="0" y="0" width="1200" height="1500" fill="url(#pg)"/><rect x="0" y="0" width="1200" height="1500" fill="url(#key)"/><g filter="url(#figure)"><path d="M-261.82,1530 C98.18,1131.82 326.18,987.16 587.78,972.69 C878.18,987.16 1106.18,1131.82 1466.18,1530 Z" fill="#8A8377"/><polygon points="474.4,1016.09 602.18,1252.37 729.96,1016.09 656.39,991.98 547.97,991.98" fill="#9a948a"/><path d="M517,784.63 L505.38,1023.32 L698.98,1023.32 L687.36,784.63 Z" fill="#af9983"/><ellipse cx="596.37" cy="589.33" rx="205.22" ry="255.57" fill="#4A3626"/><ellipse cx="786.1" cy="500.12" rx="65.82" ry="72.33" fill="#4A3626"/><ellipse cx="594.44" cy="649.61" rx="178.11" ry="226.64" fill="#E0C4A8"/><ellipse cx="708.66" cy="668.9" rx="120.03" ry="192.88" fill="#b39d86" opacity="0.5"/><ellipse cx="524.74" cy="608.62" rx="85.18" ry="120.55" fill="#e5cdb6" opacity="0.45"/></g><g filter="url(#feat)" opacity="0.72"><ellipse cx="524.74" cy="635.14" rx="36.78" ry="18.08" fill="#796a5b"/><ellipse cx="524.74" cy="603.8" rx="42.59" ry="12.06" fill="#94816f" opacity="0.7"/><ellipse cx="664.13" cy="635.14" rx="36.78" ry="18.08" fill="#796a5b"/><ellipse cx="664.13" cy="603.8" rx="42.59" ry="12.06" fill="#94816f" opacity="0.7"/><ellipse cx="586.69" cy="717.12" rx="25.17" ry="28.93" fill="#9d8976" opacity="0.55"/><ellipse cx="592.5" cy="770.16" rx="50.34" ry="18.08" fill="#867665" opacity="0.62"/><ellipse cx="592.5" cy="832.85" rx="96.8" ry="48.22" fill="#aa9580" opacity="0.4"/></g><g filter="url(#rim)" opacity="0.22"><ellipse cx="360.18" cy="572.45" rx="58.08" ry="149.49" fill="#FFF0D8"/></g>
<rect x="0" y="0" width="1200" height="1500" fill="url(#vig)"/>
<rect x="0" y="0" width="1200" height="1500" fill="url(#vg)" opacity="0.42" style="mix-blend-mode:overlay"/>
</svg>