<svg xmlns="http://www.w3.org/2000/svg" viewBox="0 0 1280 1600" width="1280" height="1600" role="img">
<defs><linearGradient id="wall" x1="0" y1="0" x2="0" y2="1"><stop offset="0%" stop-color="#e1dfd7" stop-opacity="1"/><stop offset="100%" stop-color="#C6C2B8" stop-opacity="1"/></linearGradient><linearGradient id="flr" x1="0" y1="0" x2="0" y2="1"><stop offset="0%" stop-color="#8C887E" stop-opacity="1"/><stop offset="100%" stop-color="#A8A499" stop-opacity="1"/></linearGradient><linearGradient id="shaft" x1="0" y1="0" x2="1" y2="0"><stop offset="0%" stop-color="#F7F5EF" stop-opacity="0.55"/><stop offset="100%" stop-color="#F7F5EF" stop-opacity="0"/></linearGradient><filter id="sblur" x="-25%" y="-25%" width="150%" height="150%"><feGaussianBlur stdDeviation="26"/></filter><filter id="vg-f" x="0" y="0" width="100%" height="100%"><feTurbulence type="fractalNoise" baseFrequency="0.9" numOctaves="3" stitchTiles="stitch"/><feColorMatrix type="saturate" values="0"/></filter>
<pattern id="vg" width="120" height="120" patternUnits="userSpaceOnUse"><rect width="120" height="120" filter="url(#vg-f)" opacity="1"/></pattern><radialGradient id="vig" cx="50%" cy="42%" r="80%"><stop offset="52%" stop-color="#000000" stop-opacity="0"/><stop offset="100%" stop-color="#0A0806" stop-opacity="0.48"/></radialGradient></defs>
<rect x="0" y="0" width="1280" height="1600" fill="url(#wall)"/><rect x="0" y="0" width="1280" height="110.45" fill="#e3e0d9"/><rect x="0" y="110.45" width="1280" height="3" fill="#b2afa9" opacity="0.5"/><rect x="0" y="932.18" width="1280" height="667.82" fill="url(#flr)"/><rect x="0" y="918.18" width="1280" height="14" fill="#b6b4ad"/><rect x="0" y="932.18" width="1280" height="3" fill="#69665f" opacity="0.6"/><rect x="0" y="1006.38" width="1280" height="1.4" fill="#76726a" opacity="0.3"/><rect x="0" y="1080.59" width="1280" height="1.4" fill="#76726a" opacity="0.3"/><rect x="0" y="1154.79" width="1280" height="1.4" fill="#76726a" opacity="0.3"/><rect x="0" y="1228.99" width="1280" height="1.4" fill="#76726a" opacity="0.3"/><rect x="0" y="1303.19" width="1280" height="1.4" fill="#76726a" opacity="0.3"/><rect x="0" y="1377.39" width="1280" height="1.4" fill="#76726a" opacity="0.3"/><rect x="0" y="1451.6" width="1280" height="1.4" fill="#76726a" opacity="0.3"/><rect x="0" y="1525.8" width="1280" height="1.4" fill="#76726a" opacity="0.3"/><rect x="68.85" y="146.45" width="389.41" height="710.77" fill="#a9a6a0"/><rect x="80.85" y="158.45" width="365.41" height="696.77" fill="#F7F5EF" opacity="0.95"/><rect x="169.2" y="158.45" width="6" height="696.77" fill="#33322E" opacity="0.5"/><rect x="260.55" y="158.45" width="6" height="696.77" fill="#33322E" opacity="0.5"/><rect x="351.91" y="158.45" width="6" height="696.77" fill="#33322E" opacity="0.5"/><rect x="80.85" y="538.92" width="365.41" height="5" fill="#33322E" opacity="0.38"/><polygon points="80.85,932.18 446.26,932.18 830.26,1600 234.45,1600" fill="url(#shaft)" opacity="0.5"/><rect x="544.26" y="538.17" width="473.09" height="460.79" fill="#817e76"/><rect x="638.87" y="538.17" width="2.5" height="460.79" fill="#706d65" opacity="0.6"/><rect x="733.49" y="538.17" width="2.5" height="460.79" fill="#706d65" opacity="0.6"/><rect x="828.11" y="538.17" width="2.5" height="460.79" fill="#706d65" opacity="0.6"/><rect x="922.73" y="538.17" width="2.5" height="460.79" fill="#706d65" opacity="0.6"/><rect x="506" y="1306.16" width="549.6" height="12" fill="#000000" opacity="0.16"/><rect x="512" y="998.96" width="537.6" height="307.2" fill="#c9c5bc"/><rect x="512" y="998.96" width="537.6" height="92.16" fill="#ebe9e3"/><rect x="512" y="1170.99" width="537.6" height="43.01" fill="#a4a097"/><rect x="555.01" y="931.38" width="204.29" height="79.87" fill="#f2f0ea"/><rect x="802.3" y="931.38" width="204.29" height="79.87" fill="#f2f0ea"/><rect x="416" y="1159.24" width="70.4" height="160.28" fill="#5A5852"/><rect x="431.36" y="1105.82" width="38.4" height="53.43" fill="#e3e1dc"/><rect x="449.28" y="1132.53" width="3" height="33.39" fill="#A08C6A"/><rect x="1075.2" y="1159.24" width="70.4" height="160.28" fill="#5A5852"/><rect x="1090.56" y="1105.82" width="38.4" height="53.43" fill="#e3e1dc"/><rect x="1108.48" y="1132.53" width="3" height="33.39" fill="#A08C6A"/><rect x="1106.25" y="644.18" width="4" height="488.35" fill="#5A5852"/><polygon points="1080.25,644.18 1136.25,644.18 1127.25,516.18 1089.25,516.18" fill="#ebe9e3"/><ellipse cx="1108.25" cy="652.18" rx="26" ry="7" fill="#fbeed6" opacity="0.5"/><rect x="733.57" y="206.45" width="212.05" height="300.88" fill="#bab8b1"/><rect x="742.57" y="215.45" width="194.05" height="282.88" fill="#cecbc2" opacity="0.55"/><rect x="392.96" y="1199.31" width="48" height="200.35" fill="#6d6a63"/><path d="M416.96,1199.31 Q359.31,861.36 316.54,792.21" fill="none" stroke="#4E5A42" stroke-width="7" stroke-linecap="round" opacity="0.85"/><path d="M416.96,1199.31 Q370.27,843.39 335.63,770.18" fill="none" stroke="#4E5A42" stroke-width="7" stroke-linecap="round" opacity="0.85"/><path d="M416.96,1199.31 Q386.61,830.12 364.08,753.92" fill="none" stroke="#4E5A42" stroke-width="7" stroke-linecap="round" opacity="0.85"/><path d="M416.96,1199.31 Q406.44,823.08 398.63,745.29" fill="none" stroke="#4E5A42" stroke-width="7" stroke-linecap="round" opacity="0.85"/><path d="M416.96,1199.31 Q427.48,823.08 435.29,745.29" fill="none" stroke="#4E5A42" stroke-width="7" stroke-linecap="round" opacity="0.85"/><path d="M416.96,1199.31 Q447.32,830.12 469.84,753.92" fill="none" stroke="#4E5A42" stroke-width="7" stroke-linecap="round" opacity="0.85"/><path d="M416.96,1199.31 Q463.65,843.39 498.29,770.18" fill="none" stroke="#4E5A42" stroke-width="7" stroke-linecap="round" opacity="0.85"/><path d="M416.96,1199.31 Q474.61,861.36 517.38,792.21" fill="none" stroke="#4E5A42" stroke-width="7" stroke-linecap="round" opacity="0.85"/>
<rect x="0" y="0" width="1280" height="1600" fill="url(#vig)"/>
<rect x="0" y="0" width="1280" height="1600" fill="url(#vg)" opacity="0.15" style="mix-blend-mode:overlay"/>
</svg>