<svg xmlns="http://www.w3.org/2000/svg" viewBox="0 0 1800 1200" width="1800" height="1200" role="img">
<defs><linearGradient id="sky" x1="0" y1="0" x2="0" y2="1"><stop offset="0%" stop-color="#3A2B26" stop-opacity="1"/><stop offset="46%" stop-color="#8E5C43" stop-opacity="1"/><stop offset="100%" stop-color="#D99A67" stop-opacity="1"/></linearGradient><radialGradient id="sun" cx="50%" cy="50%" r="50%"><stop offset="0%" stop-color="#f8d7a5" stop-opacity="0.55"/><stop offset="38%" stop-color="#f8d7a5" stop-opacity="0.16"/><stop offset="100%" stop-color="#f8d7a5" stop-opacity="0"/></radialGradient><filter id="vg-f" x="0" y="0" width="100%" height="100%"><feTurbulence type="fractalNoise" baseFrequency="0.9" numOctaves="3" stitchTiles="stitch"/><feColorMatrix type="saturate" values="0"/></filter>
<pattern id="vg" width="120" height="120" patternUnits="userSpaceOnUse"><rect width="120" height="120" filter="url(#vg-f)" opacity="1"/></pattern><radialGradient id="vig" cx="50%" cy="42%" r="80%"><stop offset="52%" stop-color="#000000" stop-opacity="0"/><stop offset="100%" stop-color="#0A0806" stop-opacity="0.48"/></radialGradient></defs>
<rect x="0" y="0" width="1800" height="1200" fill="url(#sky)"/><circle cx="1307.55" cy="677.52" r="261.36" fill="url(#sun)"/><rect x="1461.74" y="591.63" width="192.43" height="424" fill="#543a2e"/><rect x="1461.74" y="591.63" width="42.33" height="424" fill="#654e43" opacity="0.6"/><rect x="1461.74" y="591.63" width="192.43" height="4" fill="#7d6960" opacity="0.7"/><rect x="1477.13" y="603.63" width="161.64" height="25.17" fill="#5c595a" opacity="0.85"/><rect x="1477.13" y="644.23" width="161.64" height="25.17" fill="#5c595a" opacity="0.85"/><rect x="1477.13" y="684.83" width="161.64" height="25.17" fill="#5c595a" opacity="0.85"/><rect x="1477.13" y="725.43" width="161.64" height="25.17" fill="#5c595a" opacity="0.85"/><rect x="1477.13" y="766.03" width="161.64" height="25.17" fill="#5c595a" opacity="0.85"/><rect x="1477.13" y="806.63" width="161.64" height="25.17" fill="#5c595a" opacity="0.85"/><rect x="1477.13" y="847.23" width="161.64" height="25.17" fill="#5c595a" opacity="0.85"/><rect x="1477.13" y="887.83" width="161.64" height="25.17" fill="#5c595a" opacity="0.85"/><rect x="1477.13" y="928.43" width="161.64" height="25.17" fill="#5c595a" opacity="0.85"/><rect x="1477.13" y="969.03" width="161.64" height="25.17" fill="#5c595a" opacity="0.85"/><rect x="1509.46" y="603.63" width="2.4" height="406" fill="#543a2e" opacity="0.75"/><rect x="1541.79" y="603.63" width="2.4" height="406" fill="#543a2e" opacity="0.75"/><rect x="1574.12" y="603.63" width="2.4" height="406" fill="#543a2e" opacity="0.75"/><rect x="1606.44" y="603.63" width="2.4" height="406" fill="#543a2e" opacity="0.75"/><rect x="1577.12" y="766.03" width="26.33" height="25.17" fill="#F0C489" opacity="0.56"/><rect x="1544.79" y="725.43" width="26.33" height="25.17" fill="#F0C489" opacity="0.43"/><rect x="1544.79" y="887.83" width="26.33" height="25.17" fill="#F0C489" opacity="0.62"/><rect x="1480.13" y="806.63" width="26.33" height="25.17" fill="#F0C489" opacity="0.65"/><rect x="1544.79" y="603.63" width="26.33" height="25.17" fill="#F0C489" opacity="0.45"/><rect x="1577.12" y="603.63" width="26.33" height="25.17" fill="#F0C489" opacity="0.51"/><rect x="321.93" y="210.97" width="256.25" height="804.66" fill="#50372c"/><rect x="321.93" y="210.97" width="56.37" height="804.66" fill="#624b41" opacity="0.6"/><rect x="321.93" y="210.97" width="256.25" height="4" fill="#7a675f" opacity="0.7"/><rect x="342.43" y="222.97" width="215.25" height="27.1" fill="#565354" opacity="0.85"/><rect x="342.43" y="266.68" width="215.25" height="27.1" fill="#565354" opacity="0.85"/><rect x="342.43" y="310.38" width="215.25" height="27.1" fill="#565354" opacity="0.85"/><rect x="342.43" y="354.08" width="215.25" height="27.1" fill="#565354" opacity="0.85"/><rect x="342.43" y="397.79" width="215.25" height="27.1" fill="#565354" opacity="0.85"/><rect x="342.43" y="441.49" width="215.25" height="27.1" fill="#565354" opacity="0.85"/><rect x="342.43" y="485.19" width="215.25" height="27.1" fill="#565354" opacity="0.85"/><rect x="342.43" y="528.9" width="215.25" height="27.1" fill="#565354" opacity="0.85"/><rect x="342.43" y="572.6" width="215.25" height="27.1" fill="#565354" opacity="0.85"/><rect x="342.43" y="616.3" width="215.25" height="27.1" fill="#565354" opacity="0.85"/><rect x="342.43" y="660.01" width="215.25" height="27.1" fill="#565354" opacity="0.85"/><rect x="342.43" y="703.71" width="215.25" height="27.1" fill="#565354" opacity="0.85"/><rect x="342.43" y="747.41" width="215.25" height="27.1" fill="#565354" opacity="0.85"/><rect x="342.43" y="791.12" width="215.25" height="27.1" fill="#565354" opacity="0.85"/><rect x="342.43" y="834.82" width="215.25" height="27.1" fill="#565354" opacity="0.85"/><rect x="342.43" y="878.52" width="215.25" height="27.1" fill="#565354" opacity="0.85"/><rect x="342.43" y="922.23" width="215.25" height="27.1" fill="#565354" opacity="0.85"/><rect x="342.43" y="965.93" width="215.25" height="27.1" fill="#565354" opacity="0.85"/><rect x="378.31" y="222.97" width="2.4" height="786.66" fill="#50372c" opacity="0.75"/><rect x="414.18" y="222.97" width="2.4" height="786.66" fill="#50372c" opacity="0.75"/><rect x="450.06" y="222.97" width="2.4" height="786.66" fill="#50372c" opacity="0.75"/><rect x="485.93" y="222.97" width="2.4" height="786.66" fill="#50372c" opacity="0.75"/><rect x="521.81" y="222.97" width="2.4" height="786.66" fill="#50372c" opacity="0.75"/><rect x="488.93" y="441.49" width="29.87" height="27.1" fill="#F0C489" opacity="0.89"/><rect x="381.31" y="878.52" width="29.87" height="27.1" fill="#F0C489" opacity="0.62"/><rect x="345.43" y="703.71" width="29.87" height="27.1" fill="#F0C489" opacity="0.85"/><rect x="417.18" y="703.71" width="29.87" height="27.1" fill="#F0C489" opacity="0.74"/><rect x="488.93" y="397.79" width="29.87" height="27.1" fill="#F0C489" opacity="0.4"/><rect x="524.81" y="222.97" width="29.87" height="27.1" fill="#F0C489" opacity="0.75"/><rect x="524.81" y="791.12" width="29.87" height="27.1" fill="#F0C489" opacity="0.8"/><rect x="-15.58" y="533.51" width="258.79" height="482.12" fill="#4e362b"/><rect x="-15.58" y="533.51" width="56.93" height="482.12" fill="#604a40" opacity="0.6"/><rect x="-15.58" y="533.51" width="258.79" height="4" fill="#78665e" opacity="0.7"/><rect x="5.12" y="545.51" width="217.38" height="26.16" fill="#545151" opacity="0.85"/><rect x="5.12" y="587.71" width="217.38" height="26.16" fill="#545151" opacity="0.85"/><rect x="5.12" y="629.9" width="217.38" height="26.16" fill="#545151" opacity="0.85"/><rect x="5.12" y="672.09" width="217.38" height="26.16" fill="#545151" opacity="0.85"/><rect x="5.12" y="714.28" width="217.38" height="26.16" fill="#545151" opacity="0.85"/><rect x="5.12" y="756.48" width="217.38" height="26.16" fill="#545151" opacity="0.85"/><rect x="5.12" y="798.67" width="217.38" height="26.16" fill="#545151" opacity="0.85"/><rect x="5.12" y="840.86" width="217.38" height="26.16" fill="#545151" opacity="0.85"/><rect x="5.12" y="883.06" width="217.38" height="26.16" fill="#545151" opacity="0.85"/><rect x="5.12" y="925.25" width="217.38" height="26.16" fill="#545151" opacity="0.85"/><rect x="5.12" y="967.44" width="217.38" height="26.16" fill="#545151" opacity="0.85"/><rect x="41.35" y="545.51" width="2.4" height="464.12" fill="#4e362b" opacity="0.75"/><rect x="77.58" y="545.51" width="2.4" height="464.12" fill="#4e362b" opacity="0.75"/><rect x="113.82" y="545.51" width="2.4" height="464.12" fill="#4e362b" opacity="0.75"/><rect x="150.05" y="545.51" width="2.4" height="464.12" fill="#4e362b" opacity="0.75"/><rect x="186.28" y="545.51" width="2.4" height="464.12" fill="#4e362b" opacity="0.75"/><rect x="8.12" y="883.06" width="30.23" height="26.16" fill="#F0C489" opacity="0.64"/><rect x="153.05" y="629.9" width="30.23" height="26.16" fill="#F0C489" opacity="0.66"/><rect x="153.05" y="756.48" width="30.23" height="26.16" fill="#F0C489" opacity="0.53"/><rect x="189.28" y="714.28" width="30.23" height="26.16" fill="#F0C489" opacity="0.59"/><rect x="189.28" y="714.28" width="30.23" height="26.16" fill="#F0C489" opacity="0.44"/><rect x="80.58" y="629.9" width="30.23" height="26.16" fill="#F0C489" opacity="0.84"/><rect x="44.35" y="798.67" width="30.23" height="26.16" fill="#F0C489" opacity="0.59"/><rect x="153.05" y="672.09" width="30.23" height="26.16" fill="#F0C489" opacity="0.53"/><rect x="1251.19" y="363.65" width="207.53" height="651.98" fill="#463228"/><rect x="1251.19" y="363.65" width="45.66" height="651.98" fill="#59473e" opacity="0.6"/><rect x="1251.19" y="363.65" width="207.53" height="4" fill="#72635c" opacity="0.7"/><rect x="1267.79" y="375.65" width="174.33" height="26.2" fill="#494646" opacity="0.85"/><rect x="1267.79" y="417.92" width="174.33" height="26.2" fill="#494646" opacity="0.85"/><rect x="1267.79" y="460.18" width="174.33" height="26.2" fill="#494646" opacity="0.85"/><rect x="1267.79" y="502.45" width="174.33" height="26.2" fill="#494646" opacity="0.85"/><rect x="1267.79" y="544.72" width="174.33" height="26.2" fill="#494646" opacity="0.85"/><rect x="1267.79" y="586.98" width="174.33" height="26.2" fill="#494646" opacity="0.85"/><rect x="1267.79" y="629.25" width="174.33" height="26.2" fill="#494646" opacity="0.85"/><rect x="1267.79" y="671.51" width="174.33" height="26.2" fill="#494646" opacity="0.85"/><rect x="1267.79" y="713.78" width="174.33" height="26.2" fill="#494646" opacity="0.85"/><rect x="1267.79" y="756.04" width="174.33" height="26.2" fill="#494646" opacity="0.85"/><rect x="1267.79" y="798.31" width="174.33" height="26.2" fill="#494646" opacity="0.85"/><rect x="1267.79" y="840.57" width="174.33" height="26.2" fill="#494646" opacity="0.85"/><rect x="1267.79" y="882.84" width="174.33" height="26.2" fill="#494646" opacity="0.85"/><rect x="1267.79" y="925.1" width="174.33" height="26.2" fill="#494646" opacity="0.85"/><rect x="1267.79" y="967.37" width="174.33" height="26.2" fill="#494646" opacity="0.85"/><rect x="1302.66" y="375.65" width="2.4" height="633.98" fill="#463228" opacity="0.75"/><rect x="1337.52" y="375.65" width="2.4" height="633.98" fill="#463228" opacity="0.75"/><rect x="1372.39" y="375.65" width="2.4" height="633.98" fill="#463228" opacity="0.75"/><rect x="1407.25" y="375.65" width="2.4" height="633.98" fill="#463228" opacity="0.75"/><rect x="1270.79" y="375.65" width="28.87" height="26.2" fill="#F0C489" opacity="0.79"/><rect x="1375.39" y="629.25" width="28.87" height="26.2" fill="#F0C489" opacity="0.65"/><rect x="1270.79" y="925.1" width="28.87" height="26.2" fill="#F0C489" opacity="0.42"/><rect x="1270.79" y="586.98" width="28.87" height="26.2" fill="#F0C489" opacity="0.5"/><rect x="1340.52" y="882.84" width="28.87" height="26.2" fill="#F0C489" opacity="0.45"/><rect x="1410.25" y="713.78" width="28.87" height="26.2" fill="#F0C489" opacity="0.63"/><rect x="1410.25" y="967.37" width="28.87" height="26.2" fill="#F0C489" opacity="0.8"/><rect x="1375.39" y="925.1" width="28.87" height="26.2" fill="#F0C489" opacity="0.88"/><rect x="1270.79" y="417.92" width="28.87" height="26.2" fill="#F0C489" opacity="0.69"/><rect x="937.35" y="414.38" width="198.69" height="601.26" fill="#3c2b25"/><rect x="937.35" y="414.38" width="43.71" height="601.26" fill="#50403b" opacity="0.6"/><rect x="937.35" y="414.38" width="198.69" height="4" fill="#6b5e59" opacity="0.7"/><rect x="953.24" y="426.38" width="166.9" height="25.83" fill="#3b3738" opacity="0.85"/><rect x="953.24" y="468.04" width="166.9" height="25.83" fill="#3b3738" opacity="0.85"/><rect x="953.24" y="509.7" width="166.9" height="25.83" fill="#3b3738" opacity="0.85"/><rect x="953.24" y="551.36" width="166.9" height="25.83" fill="#3b3738" opacity="0.85"/><rect x="953.24" y="593.02" width="166.9" height="25.83" fill="#3b3738" opacity="0.85"/><rect x="953.24" y="634.68" width="166.9" height="25.83" fill="#3b3738" opacity="0.85"/><rect x="953.24" y="676.34" width="166.9" height="25.83" fill="#3b3738" opacity="0.85"/><rect x="953.24" y="718.01" width="166.9" height="25.83" fill="#3b3738" opacity="0.85"/><rect x="953.24" y="759.67" width="166.9" height="25.83" fill="#3b3738" opacity="0.85"/><rect x="953.24" y="801.33" width="166.9" height="25.83" fill="#3b3738" opacity="0.85"/><rect x="953.24" y="842.99" width="166.9" height="25.83" fill="#3b3738" opacity="0.85"/><rect x="953.24" y="884.65" width="166.9" height="25.83" fill="#3b3738" opacity="0.85"/><rect x="953.24" y="926.31" width="166.9" height="25.83" fill="#3b3738" opacity="0.85"/><rect x="953.24" y="967.97" width="166.9" height="25.83" fill="#3b3738" opacity="0.85"/><rect x="986.62" y="426.38" width="2.4" height="583.26" fill="#3c2b25" opacity="0.75"/><rect x="1020.01" y="426.38" width="2.4" height="583.26" fill="#3c2b25" opacity="0.75"/><rect x="1053.39" y="426.38" width="2.4" height="583.26" fill="#3c2b25" opacity="0.75"/><rect x="1086.77" y="426.38" width="2.4" height="583.26" fill="#3c2b25" opacity="0.75"/><rect x="956.24" y="551.36" width="27.38" height="25.83" fill="#F0C489" opacity="0.67"/><rect x="1023.01" y="926.31" width="27.38" height="25.83" fill="#F0C489" opacity="0.55"/><rect x="989.62" y="926.31" width="27.38" height="25.83" fill="#F0C489" opacity="0.64"/><rect x="989.62" y="967.97" width="27.38" height="25.83" fill="#F0C489" opacity="0.78"/><rect x="1056.39" y="593.02" width="27.38" height="25.83" fill="#F0C489" opacity="0.47"/><rect x="956.24" y="634.68" width="27.38" height="25.83" fill="#F0C489" opacity="0.46"/><rect x="1089.77" y="926.31" width="27.38" height="25.83" fill="#F0C489" opacity="0.48"/><rect x="956.24" y="426.38" width="27.38" height="25.83" fill="#F0C489" opacity="0.51"/><rect x="1056.39" y="842.99" width="27.38" height="25.83" fill="#F0C489" opacity="0.42"/><rect x="1056.39" y="593.02" width="27.38" height="25.83" fill="#F0C489" opacity="0.55"/><rect x="1023.01" y="759.67" width="27.38" height="25.83" fill="#F0C489" opacity="0.44"/><rect x="989.62" y="468.04" width="27.38" height="25.83" fill="#F0C489" opacity="0.74"/><rect x="567.19" y="281.49" width="196.44" height="734.14" fill="#312521"/><rect x="567.19" y="281.49" width="43.22" height="734.14" fill="#463b37" opacity="0.6"/><rect x="567.19" y="281.49" width="196.44" height="4" fill="#625956" opacity="0.7"/><rect x="582.91" y="293.49" width="165.01" height="26.12" fill="#2c2829" opacity="0.85"/><rect x="582.91" y="335.62" width="165.01" height="26.12" fill="#2c2829" opacity="0.85"/><rect x="582.91" y="377.74" width="165.01" height="26.12" fill="#2c2829" opacity="0.85"/><rect x="582.91" y="419.87" width="165.01" height="26.12" fill="#2c2829" opacity="0.85"/><rect x="582.91" y="461.99" width="165.01" height="26.12" fill="#2c2829" opacity="0.85"/><rect x="582.91" y="504.12" width="165.01" height="26.12" fill="#2c2829" opacity="0.85"/><rect x="582.91" y="546.25" width="165.01" height="26.12" fill="#2c2829" opacity="0.85"/><rect x="582.91" y="588.37" width="165.01" height="26.12" fill="#2c2829" opacity="0.85"/><rect x="582.91" y="630.5" width="165.01" height="26.12" fill="#2c2829" opacity="0.85"/><rect x="582.91" y="672.63" width="165.01" height="26.12" fill="#2c2829" opacity="0.85"/><rect x="582.91" y="714.75" width="165.01" height="26.12" fill="#2c2829" opacity="0.85"/><rect x="582.91" y="756.88" width="165.01" height="26.12" fill="#2c2829" opacity="0.85"/><rect x="582.91" y="799" width="165.01" height="26.12" fill="#2c2829" opacity="0.85"/><rect x="582.91" y="841.13" width="165.01" height="26.12" fill="#2c2829" opacity="0.85"/><rect x="582.91" y="883.26" width="165.01" height="26.12" fill="#2c2829" opacity="0.85"/><rect x="582.91" y="925.38" width="165.01" height="26.12" fill="#2c2829" opacity="0.85"/><rect x="582.91" y="967.51" width="165.01" height="26.12" fill="#2c2829" opacity="0.85"/><rect x="615.91" y="293.49" width="2.4" height="716.14" fill="#312521" opacity="0.75"/><rect x="648.91" y="293.49" width="2.4" height="716.14" fill="#312521" opacity="0.75"/><rect x="681.91" y="293.49" width="2.4" height="716.14" fill="#312521" opacity="0.75"/><rect x="714.92" y="293.49" width="2.4" height="716.14" fill="#312521" opacity="0.75"/><rect x="717.92" y="630.5" width="27" height="26.12" fill="#F0C489" opacity="0.8"/><rect x="651.91" y="883.26" width="27" height="26.12" fill="#F0C489" opacity="0.89"/><rect x="585.91" y="419.87" width="27" height="26.12" fill="#F0C489" opacity="0.52"/><rect x="651.91" y="756.88" width="27" height="26.12" fill="#F0C489" opacity="0.47"/><rect x="585.91" y="588.37" width="27" height="26.12" fill="#F0C489" opacity="0.86"/><rect x="618.91" y="841.13" width="27" height="26.12" fill="#F0C489" opacity="0.82"/><rect x="717.92" y="377.74" width="27" height="26.12" fill="#F0C489" opacity="0.77"/><rect x="684.91" y="630.5" width="27" height="26.12" fill="#F0C489" opacity="0.63"/><rect x="684.91" y="925.38" width="27" height="26.12" fill="#F0C489" opacity="0.56"/><rect x="618.91" y="756.88" width="27" height="26.12" fill="#F0C489" opacity="0.54"/><rect x="618.91" y="293.49" width="27" height="26.12" fill="#F0C489" opacity="0.43"/><rect x="684.91" y="883.26" width="27" height="26.12" fill="#F0C489" opacity="0.61"/><rect x="684.91" y="841.13" width="27" height="26.12" fill="#F0C489" opacity="0.77"/><rect x="717.92" y="925.38" width="27" height="26.12" fill="#F0C489" opacity="0.71"/><rect x="0" y="1015.63" width="1800" height="184.37" fill="#1a1514"/><rect x="0" y="1015.63" width="1800" height="2" fill="#f0c489" opacity="0.1"/><rect x="96.77" y="977.42" width="54.08" height="72" fill="#161212"/><rect x="570.75" y="968" width="120.33" height="72" fill="#161212"/><rect x="461.61" y="973.15" width="110.07" height="72" fill="#161212"/><rect x="59.71" y="949.01" width="84.57" height="72" fill="#161212"/><rect x="541.14" y="965.07" width="84.03" height="72" fill="#161212"/><rect x="661.8" y="985.84" width="69.49" height="72" fill="#161212"/><rect x="50.05" y="959.46" width="141.3" height="72" fill="#161212"/><rect x="432.18" y="984.45" width="84.95" height="72" fill="#161212"/><rect x="369.25" y="985.31" width="106.05" height="72" fill="#161212"/><rect x="1075.34" y="977.25" width="118.57" height="72" fill="#161212"/><rect x="847.03" y="956.91" width="73.19" height="72" fill="#161212"/><rect x="882.33" y="979.31" width="87.21" height="72" fill="#161212"/>
<rect x="0" y="0" width="1800" height="1200" fill="url(#vig)"/>
<rect x="0" y="0" width="1800" height="1200" fill="url(#vg)" opacity="0.15" style="mix-blend-mode:overlay"/>
</svg>