<svg xmlns="http://www.w3.org/2000/svg" viewBox="0 0 1800 1200" width="1800" height="1200" role="img">
<defs><linearGradient id="sky" x1="0" y1="0" x2="0" y2="1"><stop offset="0%" stop-color="#B9C2C4" stop-opacity="1"/><stop offset="46%" stop-color="#DCCFBF" stop-opacity="1"/><stop offset="100%" stop-color="#F0DFCB" stop-opacity="1"/></linearGradient><radialGradient id="sun" cx="50%" cy="50%" r="50%"><stop offset="0%" stop-color="#fae6c1" stop-opacity="0.55"/><stop offset="38%" stop-color="#fae6c1" stop-opacity="0.16"/><stop offset="100%" stop-color="#fae6c1" stop-opacity="0"/></radialGradient><filter id="vg-f" x="0" y="0" width="100%" height="100%"><feTurbulence type="fractalNoise" baseFrequency="0.9" numOctaves="3" stitchTiles="stitch"/><feColorMatrix type="saturate" values="0"/></filter>
<pattern id="vg" width="120" height="120" patternUnits="userSpaceOnUse"><rect width="120" height="120" filter="url(#vg-f)" opacity="1"/></pattern><radialGradient id="vig" cx="50%" cy="42%" r="80%"><stop offset="52%" stop-color="#000000" stop-opacity="0"/><stop offset="100%" stop-color="#0A0806" stop-opacity="0.48"/></radialGradient></defs>
<rect x="0" y="0" width="1800" height="1200" fill="url(#sky)"/><circle cx="1330.44" cy="596.43" r="261.36" fill="url(#sun)"/><rect x="1490.92" y="183.66" width="255.83" height="866.32" fill="#837c72"/><rect x="1490.92" y="183.66" width="56.28" height="866.32" fill="#8f8980" opacity="0.6"/><rect x="1490.92" y="183.66" width="255.83" height="4" fill="#a19b94" opacity="0.7"/><rect x="1511.39" y="195.66" width="214.89" height="26.3" fill="#6c6c6e" opacity="0.85"/><rect x="1511.39" y="238.07" width="214.89" height="26.3" fill="#6c6c6e" opacity="0.85"/><rect x="1511.39" y="280.49" width="214.89" height="26.3" fill="#6c6c6e" opacity="0.85"/><rect x="1511.39" y="322.91" width="214.89" height="26.3" fill="#6c6c6e" opacity="0.85"/><rect x="1511.39" y="365.32" width="214.89" height="26.3" fill="#6c6c6e" opacity="0.85"/><rect x="1511.39" y="407.74" width="214.89" height="26.3" fill="#6c6c6e" opacity="0.85"/><rect x="1511.39" y="450.15" width="214.89" height="26.3" fill="#6c6c6e" opacity="0.85"/><rect x="1511.39" y="492.57" width="214.89" height="26.3" fill="#6c6c6e" opacity="0.85"/><rect x="1511.39" y="534.99" width="214.89" height="26.3" fill="#6c6c6e" opacity="0.85"/><rect x="1511.39" y="577.4" width="214.89" height="26.3" fill="#6c6c6e" opacity="0.85"/><rect x="1511.39" y="619.82" width="214.89" height="26.3" fill="#6c6c6e" opacity="0.85"/><rect x="1511.39" y="662.23" width="214.89" height="26.3" fill="#6c6c6e" opacity="0.85"/><rect x="1511.39" y="704.65" width="214.89" height="26.3" fill="#6c6c6e" opacity="0.85"/><rect x="1511.39" y="747.07" width="214.89" height="26.3" fill="#6c6c6e" opacity="0.85"/><rect x="1511.39" y="789.48" width="214.89" height="26.3" fill="#6c6c6e" opacity="0.85"/><rect x="1511.39" y="831.9" width="214.89" height="26.3" fill="#6c6c6e" opacity="0.85"/><rect x="1511.39" y="874.31" width="214.89" height="26.3" fill="#6c6c6e" opacity="0.85"/><rect x="1511.39" y="916.73" width="214.89" height="26.3" fill="#6c6c6e" opacity="0.85"/><rect x="1511.39" y="959.15" width="214.89" height="26.3" fill="#6c6c6e" opacity="0.85"/><rect x="1511.39" y="1001.56" width="214.89" height="26.3" fill="#6c6c6e" opacity="0.85"/><rect x="1547.2" y="195.66" width="2.4" height="848.32" fill="#837c72" opacity="0.75"/><rect x="1583.02" y="195.66" width="2.4" height="848.32" fill="#837c72" opacity="0.75"/><rect x="1618.83" y="195.66" width="2.4" height="848.32" fill="#837c72" opacity="0.75"/><rect x="1654.65" y="195.66" width="2.4" height="848.32" fill="#837c72" opacity="0.75"/><rect x="1690.47" y="195.66" width="2.4" height="848.32" fill="#837c72" opacity="0.75"/><rect x="1586.02" y="365.32" width="29.82" height="26.3" fill="#F4E4C8" opacity="0.75"/><rect x="1550.2" y="789.48" width="29.82" height="26.3" fill="#F4E4C8" opacity="0.43"/><rect x="1514.39" y="365.32" width="29.82" height="26.3" fill="#F4E4C8" opacity="0.75"/><rect x="1586.02" y="534.99" width="29.82" height="26.3" fill="#F4E4C8" opacity="0.75"/><rect x="1621.83" y="238.07" width="29.82" height="26.3" fill="#F4E4C8" opacity="0.5"/><rect x="1514.39" y="577.4" width="29.82" height="26.3" fill="#F4E4C8" opacity="0.59"/><rect x="1550.2" y="662.23" width="29.82" height="26.3" fill="#F4E4C8" opacity="0.42"/><rect x="1693.47" y="577.4" width="29.82" height="26.3" fill="#F4E4C8" opacity="0.7"/><rect x="558.66" y="369.18" width="174.88" height="680.8" fill="#726c63"/><rect x="558.66" y="369.18" width="38.47" height="680.8" fill="#807b73" opacity="0.6"/><rect x="558.66" y="369.18" width="174.88" height="4" fill="#948f88" opacity="0.7"/><rect x="572.65" y="381.18" width="146.9" height="27.4" fill="#5d5d60" opacity="0.85"/><rect x="572.65" y="425.37" width="146.9" height="27.4" fill="#5d5d60" opacity="0.85"/><rect x="572.65" y="469.55" width="146.9" height="27.4" fill="#5d5d60" opacity="0.85"/><rect x="572.65" y="513.74" width="146.9" height="27.4" fill="#5d5d60" opacity="0.85"/><rect x="572.65" y="557.93" width="146.9" height="27.4" fill="#5d5d60" opacity="0.85"/><rect x="572.65" y="602.11" width="146.9" height="27.4" fill="#5d5d60" opacity="0.85"/><rect x="572.65" y="646.3" width="146.9" height="27.4" fill="#5d5d60" opacity="0.85"/><rect x="572.65" y="690.49" width="146.9" height="27.4" fill="#5d5d60" opacity="0.85"/><rect x="572.65" y="734.67" width="146.9" height="27.4" fill="#5d5d60" opacity="0.85"/><rect x="572.65" y="778.86" width="146.9" height="27.4" fill="#5d5d60" opacity="0.85"/><rect x="572.65" y="823.04" width="146.9" height="27.4" fill="#5d5d60" opacity="0.85"/><rect x="572.65" y="867.23" width="146.9" height="27.4" fill="#5d5d60" opacity="0.85"/><rect x="572.65" y="911.42" width="146.9" height="27.4" fill="#5d5d60" opacity="0.85"/><rect x="572.65" y="955.6" width="146.9" height="27.4" fill="#5d5d60" opacity="0.85"/><rect x="572.65" y="999.79" width="146.9" height="27.4" fill="#5d5d60" opacity="0.85"/><rect x="609.38" y="381.18" width="2.4" height="662.8" fill="#726c63" opacity="0.75"/><rect x="646.1" y="381.18" width="2.4" height="662.8" fill="#726c63" opacity="0.75"/><rect x="682.83" y="381.18" width="2.4" height="662.8" fill="#726c63" opacity="0.75"/><rect x="685.83" y="955.6" width="30.72" height="27.4" fill="#F4E4C8" opacity="0.78"/><rect x="575.65" y="646.3" width="30.72" height="27.4" fill="#F4E4C8" opacity="0.59"/><rect x="649.1" y="469.55" width="30.72" height="27.4" fill="#F4E4C8" opacity="0.59"/><rect x="685.83" y="690.49" width="30.72" height="27.4" fill="#F4E4C8" opacity="0.44"/><rect x="612.38" y="557.93" width="30.72" height="27.4" fill="#F4E4C8" opacity="0.6"/><rect x="685.83" y="955.6" width="30.72" height="27.4" fill="#F4E4C8" opacity="0.4"/><rect x="612.38" y="557.93" width="30.72" height="27.4" fill="#F4E4C8" opacity="0.45"/><rect x="612.38" y="778.86" width="30.72" height="27.4" fill="#F4E4C8" opacity="0.49"/><rect x="575.65" y="734.67" width="30.72" height="27.4" fill="#F4E4C8" opacity="0.67"/><rect x="649.1" y="778.86" width="30.72" height="27.4" fill="#F4E4C8" opacity="0.81"/><rect x="649.1" y="734.67" width="30.72" height="27.4" fill="#F4E4C8" opacity="0.41"/><rect x="1274.48" y="60.03" width="208.98" height="989.95" fill="#6f6a61"/><rect x="1274.48" y="60.03" width="45.98" height="989.95" fill="#7d7971" opacity="0.6"/><rect x="1274.48" y="60.03" width="208.98" height="4" fill="#928e87" opacity="0.7"/><rect x="1291.2" y="72.03" width="175.54" height="27.39" fill="#5b5b5e" opacity="0.85"/><rect x="1291.2" y="116.21" width="175.54" height="27.39" fill="#5b5b5e" opacity="0.85"/><rect x="1291.2" y="160.39" width="175.54" height="27.39" fill="#5b5b5e" opacity="0.85"/><rect x="1291.2" y="204.57" width="175.54" height="27.39" fill="#5b5b5e" opacity="0.85"/><rect x="1291.2" y="248.75" width="175.54" height="27.39" fill="#5b5b5e" opacity="0.85"/><rect x="1291.2" y="292.93" width="175.54" height="27.39" fill="#5b5b5e" opacity="0.85"/><rect x="1291.2" y="337.11" width="175.54" height="27.39" fill="#5b5b5e" opacity="0.85"/><rect x="1291.2" y="381.29" width="175.54" height="27.39" fill="#5b5b5e" opacity="0.85"/><rect x="1291.2" y="425.46" width="175.54" height="27.39" fill="#5b5b5e" opacity="0.85"/><rect x="1291.2" y="469.64" width="175.54" height="27.39" fill="#5b5b5e" opacity="0.85"/><rect x="1291.2" y="513.82" width="175.54" height="27.39" fill="#5b5b5e" opacity="0.85"/><rect x="1291.2" y="558" width="175.54" height="27.39" fill="#5b5b5e" opacity="0.85"/><rect x="1291.2" y="602.18" width="175.54" height="27.39" fill="#5b5b5e" opacity="0.85"/><rect x="1291.2" y="646.36" width="175.54" height="27.39" fill="#5b5b5e" opacity="0.85"/><rect x="1291.2" y="690.54" width="175.54" height="27.39" fill="#5b5b5e" opacity="0.85"/><rect x="1291.2" y="734.72" width="175.54" height="27.39" fill="#5b5b5e" opacity="0.85"/><rect x="1291.2" y="778.9" width="175.54" height="27.39" fill="#5b5b5e" opacity="0.85"/><rect x="1291.2" y="823.08" width="175.54" height="27.39" fill="#5b5b5e" opacity="0.85"/><rect x="1291.2" y="867.26" width="175.54" height="27.39" fill="#5b5b5e" opacity="0.85"/><rect x="1291.2" y="911.44" width="175.54" height="27.39" fill="#5b5b5e" opacity="0.85"/><rect x="1291.2" y="955.62" width="175.54" height="27.39" fill="#5b5b5e" opacity="0.85"/><rect x="1291.2" y="999.8" width="175.54" height="27.39" fill="#5b5b5e" opacity="0.85"/><rect x="1326.31" y="72.03" width="2.4" height="971.95" fill="#6f6a61" opacity="0.75"/><rect x="1361.41" y="72.03" width="2.4" height="971.95" fill="#6f6a61" opacity="0.75"/><rect x="1396.52" y="72.03" width="2.4" height="971.95" fill="#6f6a61" opacity="0.75"/><rect x="1431.63" y="72.03" width="2.4" height="971.95" fill="#6f6a61" opacity="0.75"/><rect x="1434.63" y="248.75" width="29.11" height="27.39" fill="#F4E4C8" opacity="0.85"/><rect x="1434.63" y="160.39" width="29.11" height="27.39" fill="#F4E4C8" opacity="0.44"/><rect x="1294.2" y="469.64" width="29.11" height="27.39" fill="#F4E4C8" opacity="0.52"/><rect x="1294.2" y="248.75" width="29.11" height="27.39" fill="#F4E4C8" opacity="0.85"/><rect x="1399.52" y="513.82" width="29.11" height="27.39" fill="#F4E4C8" opacity="0.73"/><rect x="1434.63" y="72.03" width="29.11" height="27.39" fill="#F4E4C8" opacity="0.78"/><rect x="1364.41" y="646.36" width="29.11" height="27.39" fill="#F4E4C8" opacity="0.53"/><rect x="1434.63" y="602.18" width="29.11" height="27.39" fill="#F4E4C8" opacity="0.51"/><rect x="1294.2" y="823.08" width="29.11" height="27.39" fill="#F4E4C8" opacity="0.68"/><rect x="1399.52" y="911.44" width="29.11" height="27.39" fill="#F4E4C8" opacity="0.5"/><rect x="1329.31" y="469.64" width="29.11" height="27.39" fill="#F4E4C8" opacity="0.8"/><rect x="820.08" y="141.46" width="187" height="908.52" fill="#6e695f"/><rect x="820.08" y="141.46" width="41.14" height="908.52" fill="#7d786f" opacity="0.6"/><rect x="820.08" y="141.46" width="187" height="4" fill="#918d85" opacity="0.7"/><rect x="835.04" y="153.46" width="157.08" height="26.29" fill="#5a5a5c" opacity="0.85"/><rect x="835.04" y="195.86" width="157.08" height="26.29" fill="#5a5a5c" opacity="0.85"/><rect x="835.04" y="238.27" width="157.08" height="26.29" fill="#5a5a5c" opacity="0.85"/><rect x="835.04" y="280.68" width="157.08" height="26.29" fill="#5a5a5c" opacity="0.85"/><rect x="835.04" y="323.08" width="157.08" height="26.29" fill="#5a5a5c" opacity="0.85"/><rect x="835.04" y="365.49" width="157.08" height="26.29" fill="#5a5a5c" opacity="0.85"/><rect x="835.04" y="407.89" width="157.08" height="26.29" fill="#5a5a5c" opacity="0.85"/><rect x="835.04" y="450.3" width="157.08" height="26.29" fill="#5a5a5c" opacity="0.85"/><rect x="835.04" y="492.7" width="157.08" height="26.29" fill="#5a5a5c" opacity="0.85"/><rect x="835.04" y="535.11" width="157.08" height="26.29" fill="#5a5a5c" opacity="0.85"/><rect x="835.04" y="577.52" width="157.08" height="26.29" fill="#5a5a5c" opacity="0.85"/><rect x="835.04" y="619.92" width="157.08" height="26.29" fill="#5a5a5c" opacity="0.85"/><rect x="835.04" y="662.33" width="157.08" height="26.29" fill="#5a5a5c" opacity="0.85"/><rect x="835.04" y="704.73" width="157.08" height="26.29" fill="#5a5a5c" opacity="0.85"/><rect x="835.04" y="747.14" width="157.08" height="26.29" fill="#5a5a5c" opacity="0.85"/><rect x="835.04" y="789.54" width="157.08" height="26.29" fill="#5a5a5c" opacity="0.85"/><rect x="835.04" y="831.95" width="157.08" height="26.29" fill="#5a5a5c" opacity="0.85"/><rect x="835.04" y="874.36" width="157.08" height="26.29" fill="#5a5a5c" opacity="0.85"/><rect x="835.04" y="916.76" width="157.08" height="26.29" fill="#5a5a5c" opacity="0.85"/><rect x="835.04" y="959.17" width="157.08" height="26.29" fill="#5a5a5c" opacity="0.85"/><rect x="835.04" y="1001.57" width="157.08" height="26.29" fill="#5a5a5c" opacity="0.85"/><rect x="874.31" y="153.46" width="2.4" height="890.52" fill="#6e695f" opacity="0.75"/><rect x="913.58" y="153.46" width="2.4" height="890.52" fill="#6e695f" opacity="0.75"/><rect x="952.85" y="153.46" width="2.4" height="890.52" fill="#6e695f" opacity="0.75"/><rect x="955.85" y="789.54" width="33.27" height="26.29" fill="#F4E4C8" opacity="0.53"/><rect x="877.31" y="916.76" width="33.27" height="26.29" fill="#F4E4C8" opacity="0.56"/><rect x="838.04" y="238.27" width="33.27" height="26.29" fill="#F4E4C8" opacity="0.65"/><rect x="877.31" y="535.11" width="33.27" height="26.29" fill="#F4E4C8" opacity="0.54"/><rect x="916.58" y="874.36" width="33.27" height="26.29" fill="#F4E4C8" opacity="0.88"/><rect x="877.31" y="407.89" width="33.27" height="26.29" fill="#F4E4C8" opacity="0.69"/><rect x="838.04" y="535.11" width="33.27" height="26.29" fill="#F4E4C8" opacity="0.87"/><rect x="838.04" y="450.3" width="33.27" height="26.29" fill="#F4E4C8" opacity="0.5"/><rect x="916.58" y="153.46" width="33.27" height="26.29" fill="#F4E4C8" opacity="0.68"/><rect x="916.58" y="1001.57" width="33.27" height="26.29" fill="#F4E4C8" opacity="0.75"/><rect x="916.58" y="153.46" width="33.27" height="26.29" fill="#F4E4C8" opacity="0.7"/><rect x="916.58" y="492.7" width="33.27" height="26.29" fill="#F4E4C8" opacity="0.47"/><rect x="211.19" y="267.78" width="227.79" height="782.2" fill="#5f5b53"/><rect x="211.19" y="267.78" width="50.11" height="782.2" fill="#6f6b64" opacity="0.6"/><rect x="211.19" y="267.78" width="227.79" height="4" fill="#85827c" opacity="0.7"/><rect x="229.41" y="279.78" width="191.35" height="26.32" fill="#4d4d50" opacity="0.85"/><rect x="229.41" y="322.24" width="191.35" height="26.32" fill="#4d4d50" opacity="0.85"/><rect x="229.41" y="364.69" width="191.35" height="26.32" fill="#4d4d50" opacity="0.85"/><rect x="229.41" y="407.15" width="191.35" height="26.32" fill="#4d4d50" opacity="0.85"/><rect x="229.41" y="449.6" width="191.35" height="26.32" fill="#4d4d50" opacity="0.85"/><rect x="229.41" y="492.06" width="191.35" height="26.32" fill="#4d4d50" opacity="0.85"/><rect x="229.41" y="534.51" width="191.35" height="26.32" fill="#4d4d50" opacity="0.85"/><rect x="229.41" y="576.97" width="191.35" height="26.32" fill="#4d4d50" opacity="0.85"/><rect x="229.41" y="619.42" width="191.35" height="26.32" fill="#4d4d50" opacity="0.85"/><rect x="229.41" y="661.88" width="191.35" height="26.32" fill="#4d4d50" opacity="0.85"/><rect x="229.41" y="704.34" width="191.35" height="26.32" fill="#4d4d50" opacity="0.85"/><rect x="229.41" y="746.79" width="191.35" height="26.32" fill="#4d4d50" opacity="0.85"/><rect x="229.41" y="789.25" width="191.35" height="26.32" fill="#4d4d50" opacity="0.85"/><rect x="229.41" y="831.7" width="191.35" height="26.32" fill="#4d4d50" opacity="0.85"/><rect x="229.41" y="874.16" width="191.35" height="26.32" fill="#4d4d50" opacity="0.85"/><rect x="229.41" y="916.61" width="191.35" height="26.32" fill="#4d4d50" opacity="0.85"/><rect x="229.41" y="959.07" width="191.35" height="26.32" fill="#4d4d50" opacity="0.85"/><rect x="229.41" y="1001.52" width="191.35" height="26.32" fill="#4d4d50" opacity="0.85"/><rect x="267.68" y="279.78" width="2.4" height="764.2" fill="#5f5b53" opacity="0.75"/><rect x="305.95" y="279.78" width="2.4" height="764.2" fill="#5f5b53" opacity="0.75"/><rect x="344.22" y="279.78" width="2.4" height="764.2" fill="#5f5b53" opacity="0.75"/><rect x="382.49" y="279.78" width="2.4" height="764.2" fill="#5f5b53" opacity="0.75"/><rect x="308.95" y="534.51" width="32.27" height="26.32" fill="#F4E4C8" opacity="0.73"/><rect x="308.95" y="407.15" width="32.27" height="26.32" fill="#F4E4C8" opacity="0.83"/><rect x="308.95" y="874.16" width="32.27" height="26.32" fill="#F4E4C8" opacity="0.87"/><rect x="270.68" y="874.16" width="32.27" height="26.32" fill="#F4E4C8" opacity="0.57"/><rect x="270.68" y="407.15" width="32.27" height="26.32" fill="#F4E4C8" opacity="0.42"/><rect x="385.49" y="746.79" width="32.27" height="26.32" fill="#F4E4C8" opacity="0.43"/><rect x="308.95" y="322.24" width="32.27" height="26.32" fill="#F4E4C8" opacity="0.53"/><rect x="232.41" y="449.6" width="32.27" height="26.32" fill="#F4E4C8" opacity="0.78"/><rect x="308.95" y="407.15" width="32.27" height="26.32" fill="#F4E4C8" opacity="0.67"/><rect x="385.49" y="746.79" width="32.27" height="26.32" fill="#F4E4C8" opacity="0.78"/><rect x="308.95" y="322.24" width="32.27" height="26.32" fill="#F4E4C8" opacity="0.73"/><rect x="385.49" y="704.34" width="32.27" height="26.32" fill="#F4E4C8" opacity="0.82"/><rect x="308.95" y="534.51" width="32.27" height="26.32" fill="#F4E4C8" opacity="0.71"/><rect x="232.41" y="874.16" width="32.27" height="26.32" fill="#F4E4C8" opacity="0.64"/><rect x="12.76" y="118.3" width="224.04" height="931.67" fill="#59554d"/><rect x="12.76" y="118.3" width="49.29" height="931.67" fill="#6a665f" opacity="0.6"/><rect x="12.76" y="118.3" width="224.04" height="4" fill="#817e78" opacity="0.7"/><rect x="30.68" y="130.3" width="188.2" height="26.98" fill="#48484b" opacity="0.85"/><rect x="30.68" y="173.81" width="188.2" height="26.98" fill="#48484b" opacity="0.85"/><rect x="30.68" y="217.32" width="188.2" height="26.98" fill="#48484b" opacity="0.85"/><rect x="30.68" y="260.83" width="188.2" height="26.98" fill="#48484b" opacity="0.85"/><rect x="30.68" y="304.34" width="188.2" height="26.98" fill="#48484b" opacity="0.85"/><rect x="30.68" y="347.84" width="188.2" height="26.98" fill="#48484b" opacity="0.85"/><rect x="30.68" y="391.35" width="188.2" height="26.98" fill="#48484b" opacity="0.85"/><rect x="30.68" y="434.86" width="188.2" height="26.98" fill="#48484b" opacity="0.85"/><rect x="30.68" y="478.37" width="188.2" height="26.98" fill="#48484b" opacity="0.85"/><rect x="30.68" y="521.88" width="188.2" height="26.98" fill="#48484b" opacity="0.85"/><rect x="30.68" y="565.39" width="188.2" height="26.98" fill="#48484b" opacity="0.85"/><rect x="30.68" y="608.89" width="188.2" height="26.98" fill="#48484b" opacity="0.85"/><rect x="30.68" y="652.4" width="188.2" height="26.98" fill="#48484b" opacity="0.85"/><rect x="30.68" y="695.91" width="188.2" height="26.98" fill="#48484b" opacity="0.85"/><rect x="30.68" y="739.42" width="188.2" height="26.98" fill="#48484b" opacity="0.85"/><rect x="30.68" y="782.93" width="188.2" height="26.98" fill="#48484b" opacity="0.85"/><rect x="30.68" y="826.44" width="188.2" height="26.98" fill="#48484b" opacity="0.85"/><rect x="30.68" y="869.94" width="188.2" height="26.98" fill="#48484b" opacity="0.85"/><rect x="30.68" y="913.45" width="188.2" height="26.98" fill="#48484b" opacity="0.85"/><rect x="30.68" y="956.96" width="188.2" height="26.98" fill="#48484b" opacity="0.85"/><rect x="30.68" y="1000.47" width="188.2" height="26.98" fill="#48484b" opacity="0.85"/><rect x="68.32" y="130.3" width="2.4" height="913.67" fill="#59554d" opacity="0.75"/><rect x="105.96" y="130.3" width="2.4" height="913.67" fill="#59554d" opacity="0.75"/><rect x="143.6" y="130.3" width="2.4" height="913.67" fill="#59554d" opacity="0.75"/><rect x="181.24" y="130.3" width="2.4" height="913.67" fill="#59554d" opacity="0.75"/><rect x="71.32" y="391.35" width="31.64" height="26.98" fill="#F4E4C8" opacity="0.72"/><rect x="33.68" y="695.91" width="31.64" height="26.98" fill="#F4E4C8" opacity="0.51"/><rect x="33.68" y="565.39" width="31.64" height="26.98" fill="#F4E4C8" opacity="0.81"/><rect x="184.24" y="521.88" width="31.64" height="26.98" fill="#F4E4C8" opacity="0.77"/><rect x="184.24" y="391.35" width="31.64" height="26.98" fill="#F4E4C8" opacity="0.71"/><rect x="146.6" y="521.88" width="31.64" height="26.98" fill="#F4E4C8" opacity="0.89"/><rect x="108.96" y="173.81" width="31.64" height="26.98" fill="#F4E4C8" opacity="0.57"/><rect x="184.24" y="652.4" width="31.64" height="26.98" fill="#F4E4C8" opacity="0.64"/><rect x="71.32" y="173.81" width="31.64" height="26.98" fill="#F4E4C8" opacity="0.84"/><rect x="146.6" y="956.96" width="31.64" height="26.98" fill="#F4E4C8" opacity="0.43"/><rect x="108.96" y="913.45" width="31.64" height="26.98" fill="#F4E4C8" opacity="0.76"/><rect x="71.32" y="608.89" width="31.64" height="26.98" fill="#F4E4C8" opacity="0.58"/><rect x="71.32" y="869.94" width="31.64" height="26.98" fill="#F4E4C8" opacity="0.85"/><rect x="108.96" y="652.4" width="31.64" height="26.98" fill="#F4E4C8" opacity="0.51"/><rect x="108.96" y="826.44" width="31.64" height="26.98" fill="#F4E4C8" opacity="0.56"/><rect x="1058.37" y="70.11" width="267.99" height="979.87" fill="#57534b"/><rect x="1058.37" y="70.11" width="58.96" height="979.87" fill="#68645d" opacity="0.6"/><rect x="1058.37" y="70.11" width="267.99" height="4" fill="#7f7c76" opacity="0.7"/><rect x="1079.81" y="82.11" width="225.11" height="27.11" fill="#464649" opacity="0.85"/><rect x="1079.81" y="125.83" width="225.11" height="27.11" fill="#464649" opacity="0.85"/><rect x="1079.81" y="169.55" width="225.11" height="27.11" fill="#464649" opacity="0.85"/><rect x="1079.81" y="213.27" width="225.11" height="27.11" fill="#464649" opacity="0.85"/><rect x="1079.81" y="256.99" width="225.11" height="27.11" fill="#464649" opacity="0.85"/><rect x="1079.81" y="300.71" width="225.11" height="27.11" fill="#464649" opacity="0.85"/><rect x="1079.81" y="344.44" width="225.11" height="27.11" fill="#464649" opacity="0.85"/><rect x="1079.81" y="388.16" width="225.11" height="27.11" fill="#464649" opacity="0.85"/><rect x="1079.81" y="431.88" width="225.11" height="27.11" fill="#464649" opacity="0.85"/><rect x="1079.81" y="475.6" width="225.11" height="27.11" fill="#464649" opacity="0.85"/><rect x="1079.81" y="519.32" width="225.11" height="27.11" fill="#464649" opacity="0.85"/><rect x="1079.81" y="563.04" width="225.11" height="27.11" fill="#464649" opacity="0.85"/><rect x="1079.81" y="606.76" width="225.11" height="27.11" fill="#464649" opacity="0.85"/><rect x="1079.81" y="650.49" width="225.11" height="27.11" fill="#464649" opacity="0.85"/><rect x="1079.81" y="694.21" width="225.11" height="27.11" fill="#464649" opacity="0.85"/><rect x="1079.81" y="737.93" width="225.11" height="27.11" fill="#464649" opacity="0.85"/><rect x="1079.81" y="781.65" width="225.11" height="27.11" fill="#464649" opacity="0.85"/><rect x="1079.81" y="825.37" width="225.11" height="27.11" fill="#464649" opacity="0.85"/><rect x="1079.81" y="869.09" width="225.11" height="27.11" fill="#464649" opacity="0.85"/><rect x="1079.81" y="912.81" width="225.11" height="27.11" fill="#464649" opacity="0.85"/><rect x="1079.81" y="956.54" width="225.11" height="27.11" fill="#464649" opacity="0.85"/><rect x="1079.81" y="1000.26" width="225.11" height="27.11" fill="#464649" opacity="0.85"/><rect x="1117.32" y="82.11" width="2.4" height="961.87" fill="#57534b" opacity="0.75"/><rect x="1154.84" y="82.11" width="2.4" height="961.87" fill="#57534b" opacity="0.75"/><rect x="1192.36" y="82.11" width="2.4" height="961.87" fill="#57534b" opacity="0.75"/><rect x="1229.88" y="82.11" width="2.4" height="961.87" fill="#57534b" opacity="0.75"/><rect x="1267.4" y="82.11" width="2.4" height="961.87" fill="#57534b" opacity="0.75"/><rect x="1232.88" y="869.09" width="31.52" height="27.11" fill="#F4E4C8" opacity="0.61"/><rect x="1270.4" y="650.49" width="31.52" height="27.11" fill="#F4E4C8" opacity="0.55"/><rect x="1232.88" y="125.83" width="31.52" height="27.11" fill="#F4E4C8" opacity="0.83"/><rect x="1120.32" y="737.93" width="31.52" height="27.11" fill="#F4E4C8" opacity="0.62"/><rect x="1270.4" y="344.44" width="31.52" height="27.11" fill="#F4E4C8" opacity="0.8"/><rect x="1232.88" y="781.65" width="31.52" height="27.11" fill="#F4E4C8" opacity="0.83"/><rect x="1232.88" y="519.32" width="31.52" height="27.11" fill="#F4E4C8" opacity="0.78"/><rect x="1195.36" y="125.83" width="31.52" height="27.11" fill="#F4E4C8" opacity="0.85"/><rect x="1195.36" y="82.11" width="31.52" height="27.11" fill="#F4E4C8" opacity="0.79"/><rect x="1195.36" y="82.11" width="31.52" height="27.11" fill="#F4E4C8" opacity="0.46"/><rect x="1157.84" y="1000.26" width="31.52" height="27.11" fill="#F4E4C8" opacity="0.7"/><rect x="1082.81" y="825.37" width="31.52" height="27.11" fill="#F4E4C8" opacity="0.67"/><rect x="1195.36" y="606.76" width="31.52" height="27.11" fill="#F4E4C8" opacity="0.84"/><rect x="1195.36" y="563.04" width="31.52" height="27.11" fill="#F4E4C8" opacity="0.58"/><rect x="1157.84" y="475.6" width="31.52" height="27.11" fill="#F4E4C8" opacity="0.59"/><rect x="1120.32" y="737.93" width="31.52" height="27.11" fill="#F4E4C8" opacity="0.86"/><rect x="0" y="1049.98" width="1800" height="150.02" fill="#383530"/><rect x="0" y="1049.98" width="1800" height="2" fill="#f4e4c8" opacity="0.1"/><rect x="1605.67" y="1006.12" width="114.71" height="72" fill="#302e2a"/><rect x="1597.71" y="1023.4" width="55.69" height="72" fill="#302e2a"/><rect x="684.97" y="999.61" width="169.8" height="72" fill="#302e2a"/><rect x="447.39" y="991.12" width="68.24" height="72" fill="#302e2a"/><rect x="1597.53" y="1014.6" width="86.48" height="72" fill="#302e2a"/><rect x="1648.9" y="1012.67" width="57.74" height="72" fill="#302e2a"/><rect x="168.63" y="990.24" width="167.84" height="72" fill="#302e2a"/><rect x="699.45" y="978.9" width="104.93" height="72" fill="#302e2a"/><rect x="475.54" y="1017.38" width="54.61" height="72" fill="#302e2a"/><rect x="177.41" y="993.58" width="149.24" height="72" fill="#302e2a"/><rect x="336.05" y="1005.74" width="142.36" height="72" fill="#302e2a"/><rect x="183.33" y="1014.98" width="62.14" height="72" fill="#302e2a"/>
<rect x="0" y="0" width="1800" height="1200" fill="url(#vig)"/>
<rect x="0" y="0" width="1800" height="1200" fill="url(#vg)" opacity="0.15" style="mix-blend-mode:overlay"/>
</svg>