<svg xmlns="http://www.w3.org/2000/svg" viewBox="0 0 1800 1200" width="1800" height="1200" role="img">
<defs><linearGradient id="sky" x1="0" y1="0" x2="0" y2="1"><stop offset="0%" stop-color="#0E0F14" stop-opacity="1"/><stop offset="46%" stop-color="#1A1C24" stop-opacity="1"/><stop offset="100%" stop-color="#2E2B2E" stop-opacity="1"/></linearGradient><radialGradient id="sun" cx="50%" cy="50%" r="50%"><stop offset="0%" stop-color="#f4d6a3" stop-opacity="0.55"/><stop offset="38%" stop-color="#f4d6a3" stop-opacity="0.16"/><stop offset="100%" stop-color="#f4d6a3" stop-opacity="0"/></radialGradient><filter id="vg-f" x="0" y="0" width="100%" height="100%"><feTurbulence type="fractalNoise" baseFrequency="0.9" numOctaves="3" stitchTiles="stitch"/><feColorMatrix type="saturate" values="0"/></filter>
<pattern id="vg" width="120" height="120" patternUnits="userSpaceOnUse"><rect width="120" height="120" filter="url(#vg-f)" opacity="1"/></pattern><radialGradient id="vig" cx="50%" cy="42%" r="80%"><stop offset="52%" stop-color="#000000" stop-opacity="0"/><stop offset="100%" stop-color="#0A0806" stop-opacity="0.48"/></radialGradient></defs>
<rect x="0" y="0" width="1800" height="1200" fill="url(#sky)"/><circle cx="1052.07" cy="676.55" r="261.36" fill="url(#sun)"/><rect x="1079.08" y="59.92" width="296.44" height="996.29" fill="#111217"/><rect x="1079.08" y="59.92" width="65.22" height="996.29" fill="#292a2e" opacity="0.6"/><rect x="1079.08" y="59.92" width="296.44" height="4" fill="#4a4b4f" opacity="0.7"/><rect x="1102.79" y="71.92" width="249.01" height="27.57" fill="#4f4f52" opacity="0.85"/><rect x="1102.79" y="116.39" width="249.01" height="27.57" fill="#4f4f52" opacity="0.85"/><rect x="1102.79" y="160.86" width="249.01" height="27.57" fill="#4f4f52" opacity="0.85"/><rect x="1102.79" y="205.33" width="249.01" height="27.57" fill="#4f4f52" opacity="0.85"/><rect x="1102.79" y="249.8" width="249.01" height="27.57" fill="#4f4f52" opacity="0.85"/><rect x="1102.79" y="294.26" width="249.01" height="27.57" fill="#4f4f52" opacity="0.85"/><rect x="1102.79" y="338.73" width="249.01" height="27.57" fill="#4f4f52" opacity="0.85"/><rect x="1102.79" y="383.2" width="249.01" height="27.57" fill="#4f4f52" opacity="0.85"/><rect x="1102.79" y="427.67" width="249.01" height="27.57" fill="#4f4f52" opacity="0.85"/><rect x="1102.79" y="472.13" width="249.01" height="27.57" fill="#4f4f52" opacity="0.85"/><rect x="1102.79" y="516.6" width="249.01" height="27.57" fill="#4f4f52" opacity="0.85"/><rect x="1102.79" y="561.07" width="249.01" height="27.57" fill="#4f4f52" opacity="0.85"/><rect x="1102.79" y="605.54" width="249.01" height="27.57" fill="#4f4f52" opacity="0.85"/><rect x="1102.79" y="650" width="249.01" height="27.57" fill="#4f4f52" opacity="0.85"/><rect x="1102.79" y="694.47" width="249.01" height="27.57" fill="#4f4f52" opacity="0.85"/><rect x="1102.79" y="738.94" width="249.01" height="27.57" fill="#4f4f52" opacity="0.85"/><rect x="1102.79" y="783.41" width="249.01" height="27.57" fill="#4f4f52" opacity="0.85"/><rect x="1102.79" y="827.87" width="249.01" height="27.57" fill="#4f4f52" opacity="0.85"/><rect x="1102.79" y="872.34" width="249.01" height="27.57" fill="#4f4f52" opacity="0.85"/><rect x="1102.79" y="916.81" width="249.01" height="27.57" fill="#4f4f52" opacity="0.85"/><rect x="1102.79" y="961.28" width="249.01" height="27.57" fill="#4f4f52" opacity="0.85"/><rect x="1102.79" y="1005.74" width="249.01" height="27.57" fill="#4f4f52" opacity="0.85"/><rect x="1138.36" y="71.92" width="2.4" height="978.29" fill="#111217" opacity="0.75"/><rect x="1173.94" y="71.92" width="2.4" height="978.29" fill="#111217" opacity="0.75"/><rect x="1209.51" y="71.92" width="2.4" height="978.29" fill="#111217" opacity="0.75"/><rect x="1245.08" y="71.92" width="2.4" height="978.29" fill="#111217" opacity="0.75"/><rect x="1280.66" y="71.92" width="2.4" height="978.29" fill="#111217" opacity="0.75"/><rect x="1316.23" y="71.92" width="2.4" height="978.29" fill="#111217" opacity="0.75"/><rect x="1248.08" y="338.73" width="29.57" height="27.57" fill="#E7C185" opacity="0.63"/><rect x="1319.23" y="916.81" width="29.57" height="27.57" fill="#E7C185" opacity="0.44"/><rect x="1212.51" y="516.6" width="29.57" height="27.57" fill="#E7C185" opacity="0.66"/><rect x="1248.08" y="205.33" width="29.57" height="27.57" fill="#E7C185" opacity="0.64"/><rect x="1283.66" y="516.6" width="29.57" height="27.57" fill="#E7C185" opacity="0.84"/><rect x="1176.94" y="205.33" width="29.57" height="27.57" fill="#E7C185" opacity="0.67"/><rect x="1176.94" y="783.41" width="29.57" height="27.57" fill="#E7C185" opacity="0.61"/><rect x="404.52" y="423.66" width="369.59" height="632.55" fill="#111217"/><rect x="404.52" y="423.66" width="81.31" height="632.55" fill="#292a2e" opacity="0.6"/><rect x="404.52" y="423.66" width="369.59" height="4" fill="#4a4b4f" opacity="0.7"/><rect x="434.09" y="435.66" width="310.45" height="27.22" fill="#4e4e51" opacity="0.85"/><rect x="434.09" y="479.56" width="310.45" height="27.22" fill="#4e4e51" opacity="0.85"/><rect x="434.09" y="523.45" width="310.45" height="27.22" fill="#4e4e51" opacity="0.85"/><rect x="434.09" y="567.35" width="310.45" height="27.22" fill="#4e4e51" opacity="0.85"/><rect x="434.09" y="611.25" width="310.45" height="27.22" fill="#4e4e51" opacity="0.85"/><rect x="434.09" y="655.14" width="310.45" height="27.22" fill="#4e4e51" opacity="0.85"/><rect x="434.09" y="699.04" width="310.45" height="27.22" fill="#4e4e51" opacity="0.85"/><rect x="434.09" y="742.93" width="310.45" height="27.22" fill="#4e4e51" opacity="0.85"/><rect x="434.09" y="786.83" width="310.45" height="27.22" fill="#4e4e51" opacity="0.85"/><rect x="434.09" y="830.73" width="310.45" height="27.22" fill="#4e4e51" opacity="0.85"/><rect x="434.09" y="874.62" width="310.45" height="27.22" fill="#4e4e51" opacity="0.85"/><rect x="434.09" y="918.52" width="310.45" height="27.22" fill="#4e4e51" opacity="0.85"/><rect x="434.09" y="962.42" width="310.45" height="27.22" fill="#4e4e51" opacity="0.85"/><rect x="434.09" y="1006.31" width="310.45" height="27.22" fill="#4e4e51" opacity="0.85"/><rect x="478.44" y="435.66" width="2.4" height="614.55" fill="#111217" opacity="0.75"/><rect x="522.79" y="435.66" width="2.4" height="614.55" fill="#111217" opacity="0.75"/><rect x="567.14" y="435.66" width="2.4" height="614.55" fill="#111217" opacity="0.75"/><rect x="611.49" y="435.66" width="2.4" height="614.55" fill="#111217" opacity="0.75"/><rect x="655.84" y="435.66" width="2.4" height="614.55" fill="#111217" opacity="0.75"/><rect x="700.19" y="435.66" width="2.4" height="614.55" fill="#111217" opacity="0.75"/><rect x="703.19" y="830.73" width="38.35" height="27.22" fill="#E7C185" opacity="0.66"/><rect x="658.84" y="435.66" width="38.35" height="27.22" fill="#E7C185" opacity="0.7"/><rect x="481.44" y="962.42" width="38.35" height="27.22" fill="#E7C185" opacity="0.6"/><rect x="570.14" y="479.56" width="38.35" height="27.22" fill="#E7C185" opacity="0.44"/><rect x="703.19" y="435.66" width="38.35" height="27.22" fill="#E7C185" opacity="0.86"/><rect x="481.44" y="523.45" width="38.35" height="27.22" fill="#E7C185" opacity="0.76"/><rect x="658.84" y="874.62" width="38.35" height="27.22" fill="#E7C185" opacity="0.44"/><rect x="762.6" y="576.57" width="338.03" height="479.65" fill="#0b0b0e"/><rect x="762.6" y="576.57" width="74.37" height="479.65" fill="#232326" opacity="0.6"/><rect x="762.6" y="576.57" width="338.03" height="4" fill="#464648" opacity="0.7"/><rect x="789.64" y="588.57" width="283.95" height="26.02" fill="#131316" opacity="0.85"/><rect x="789.64" y="630.53" width="283.95" height="26.02" fill="#131316" opacity="0.85"/><rect x="789.64" y="672.5" width="283.95" height="26.02" fill="#131316" opacity="0.85"/><rect x="789.64" y="714.47" width="283.95" height="26.02" fill="#131316" opacity="0.85"/><rect x="789.64" y="756.44" width="283.95" height="26.02" fill="#131316" opacity="0.85"/><rect x="789.64" y="798.4" width="283.95" height="26.02" fill="#131316" opacity="0.85"/><rect x="789.64" y="840.37" width="283.95" height="26.02" fill="#131316" opacity="0.85"/><rect x="789.64" y="882.34" width="283.95" height="26.02" fill="#131316" opacity="0.85"/><rect x="789.64" y="924.31" width="283.95" height="26.02" fill="#131316" opacity="0.85"/><rect x="789.64" y="966.28" width="283.95" height="26.02" fill="#131316" opacity="0.85"/><rect x="789.64" y="1008.24" width="283.95" height="26.02" fill="#131316" opacity="0.85"/><rect x="830.21" y="588.57" width="2.4" height="461.65" fill="#0b0b0e" opacity="0.75"/><rect x="870.77" y="588.57" width="2.4" height="461.65" fill="#0b0b0e" opacity="0.75"/><rect x="911.33" y="588.57" width="2.4" height="461.65" fill="#0b0b0e" opacity="0.75"/><rect x="951.9" y="588.57" width="2.4" height="461.65" fill="#0b0b0e" opacity="0.75"/><rect x="992.46" y="588.57" width="2.4" height="461.65" fill="#0b0b0e" opacity="0.75"/><rect x="1033.02" y="588.57" width="2.4" height="461.65" fill="#0b0b0e" opacity="0.75"/><rect x="914.33" y="630.53" width="34.56" height="26.02" fill="#E7C185" opacity="0.9"/><rect x="873.77" y="966.28" width="34.56" height="26.02" fill="#E7C185" opacity="0.77"/><rect x="792.64" y="714.47" width="34.56" height="26.02" fill="#E7C185" opacity="0.42"/><rect x="1036.02" y="798.4" width="34.56" height="26.02" fill="#E7C185" opacity="0.63"/><rect x="833.21" y="882.34" width="34.56" height="26.02" fill="#E7C185" opacity="0.54"/><rect x="995.46" y="924.31" width="34.56" height="26.02" fill="#E7C185" opacity="0.62"/><rect x="833.21" y="966.28" width="34.56" height="26.02" fill="#E7C185" opacity="0.87"/><rect x="914.33" y="840.37" width="34.56" height="26.02" fill="#E7C185" opacity="0.88"/><rect x="995.46" y="630.53" width="34.56" height="26.02" fill="#E7C185" opacity="0.77"/><rect x="954.9" y="966.28" width="34.56" height="26.02" fill="#E7C185" opacity="0.57"/><rect x="954.9" y="798.4" width="34.56" height="26.02" fill="#E7C185" opacity="0.79"/><rect x="792.64" y="798.4" width="34.56" height="26.02" fill="#E7C185" opacity="0.51"/><rect x="914.33" y="714.47" width="34.56" height="26.02" fill="#E7C185" opacity="0.51"/><rect x="1036.02" y="1008.24" width="34.56" height="26.02" fill="#E7C185" opacity="0.68"/><rect x="1036.02" y="630.53" width="34.56" height="26.02" fill="#E7C185" opacity="0.75"/><rect x="914.33" y="672.5" width="34.56" height="26.02" fill="#E7C185" opacity="0.41"/><rect x="914.33" y="672.5" width="34.56" height="26.02" fill="#E7C185" opacity="0.67"/><rect x="1408.08" y="67.36" width="280.31" height="988.85" fill="#0a0a0d"/><rect x="1408.08" y="67.36" width="61.67" height="988.85" fill="#232325" opacity="0.6"/><rect x="1408.08" y="67.36" width="280.31" height="4" fill="#454547" opacity="0.7"/><rect x="1430.5" y="79.36" width="235.46" height="27.36" fill="#0f0f13" opacity="0.85"/><rect x="1430.5" y="123.49" width="235.46" height="27.36" fill="#0f0f13" opacity="0.85"/><rect x="1430.5" y="167.62" width="235.46" height="27.36" fill="#0f0f13" opacity="0.85"/><rect x="1430.5" y="211.75" width="235.46" height="27.36" fill="#0f0f13" opacity="0.85"/><rect x="1430.5" y="255.88" width="235.46" height="27.36" fill="#0f0f13" opacity="0.85"/><rect x="1430.5" y="300.01" width="235.46" height="27.36" fill="#0f0f13" opacity="0.85"/><rect x="1430.5" y="344.14" width="235.46" height="27.36" fill="#0f0f13" opacity="0.85"/><rect x="1430.5" y="388.27" width="235.46" height="27.36" fill="#0f0f13" opacity="0.85"/><rect x="1430.5" y="432.4" width="235.46" height="27.36" fill="#0f0f13" opacity="0.85"/><rect x="1430.5" y="476.53" width="235.46" height="27.36" fill="#0f0f13" opacity="0.85"/><rect x="1430.5" y="520.66" width="235.46" height="27.36" fill="#0f0f13" opacity="0.85"/><rect x="1430.5" y="564.79" width="235.46" height="27.36" fill="#0f0f13" opacity="0.85"/><rect x="1430.5" y="608.92" width="235.46" height="27.36" fill="#0f0f13" opacity="0.85"/><rect x="1430.5" y="653.04" width="235.46" height="27.36" fill="#0f0f13" opacity="0.85"/><rect x="1430.5" y="697.17" width="235.46" height="27.36" fill="#0f0f13" opacity="0.85"/><rect x="1430.5" y="741.3" width="235.46" height="27.36" fill="#0f0f13" opacity="0.85"/><rect x="1430.5" y="785.43" width="235.46" height="27.36" fill="#0f0f13" opacity="0.85"/><rect x="1430.5" y="829.56" width="235.46" height="27.36" fill="#0f0f13" opacity="0.85"/><rect x="1430.5" y="873.69" width="235.46" height="27.36" fill="#0f0f13" opacity="0.85"/><rect x="1430.5" y="917.82" width="235.46" height="27.36" fill="#0f0f13" opacity="0.85"/><rect x="1430.5" y="961.95" width="235.46" height="27.36" fill="#0f0f13" opacity="0.85"/><rect x="1430.5" y="1006.08" width="235.46" height="27.36" fill="#0f0f13" opacity="0.85"/><rect x="1464.14" y="79.36" width="2.4" height="970.85" fill="#0a0a0d" opacity="0.75"/><rect x="1497.78" y="79.36" width="2.4" height="970.85" fill="#0a0a0d" opacity="0.75"/><rect x="1531.41" y="79.36" width="2.4" height="970.85" fill="#0a0a0d" opacity="0.75"/><rect x="1565.05" y="79.36" width="2.4" height="970.85" fill="#0a0a0d" opacity="0.75"/><rect x="1598.69" y="79.36" width="2.4" height="970.85" fill="#0a0a0d" opacity="0.75"/><rect x="1632.32" y="79.36" width="2.4" height="970.85" fill="#0a0a0d" opacity="0.75"/><rect x="1601.69" y="1006.08" width="27.64" height="27.36" fill="#E7C185" opacity="0.85"/><rect x="1568.05" y="79.36" width="27.64" height="27.36" fill="#E7C185" opacity="0.9"/><rect x="1433.5" y="476.53" width="27.64" height="27.36" fill="#E7C185" opacity="0.42"/><rect x="1635.32" y="697.17" width="27.64" height="27.36" fill="#E7C185" opacity="0.54"/><rect x="1467.14" y="388.27" width="27.64" height="27.36" fill="#E7C185" opacity="0.48"/><rect x="1467.14" y="917.82" width="27.64" height="27.36" fill="#E7C185" opacity="0.56"/><rect x="1635.32" y="432.4" width="27.64" height="27.36" fill="#E7C185" opacity="0.78"/><rect x="1534.41" y="255.88" width="27.64" height="27.36" fill="#E7C185" opacity="0.58"/><rect x="1500.78" y="344.14" width="27.64" height="27.36" fill="#E7C185" opacity="0.68"/><rect x="1601.69" y="300.01" width="27.64" height="27.36" fill="#E7C185" opacity="0.64"/><rect x="1568.05" y="167.62" width="27.64" height="27.36" fill="#E7C185" opacity="0.82"/><rect x="1568.05" y="1006.08" width="27.64" height="27.36" fill="#E7C185" opacity="0.62"/><rect x="1433.5" y="741.3" width="27.64" height="27.36" fill="#E7C185" opacity="0.42"/><rect x="1635.32" y="432.4" width="27.64" height="27.36" fill="#E7C185" opacity="0.43"/><rect x="1467.14" y="608.92" width="27.64" height="27.36" fill="#E7C185" opacity="0.47"/><rect x="1500.78" y="300.01" width="27.64" height="27.36" fill="#E7C185" opacity="0.73"/><rect x="1467.14" y="476.53" width="27.64" height="27.36" fill="#E7C185" opacity="0.63"/><rect x="1534.41" y="873.69" width="27.64" height="27.36" fill="#E7C185" opacity="0.45"/><rect x="45.04" y="130.37" width="285.48" height="925.84" fill="#0a0a0d"/><rect x="45.04" y="130.37" width="62.81" height="925.84" fill="#232325" opacity="0.6"/><rect x="45.04" y="130.37" width="285.48" height="4" fill="#454547" opacity="0.7"/><rect x="67.88" y="142.37" width="239.8" height="26.8" fill="#0d0d11" opacity="0.85"/><rect x="67.88" y="185.6" width="239.8" height="26.8" fill="#0d0d11" opacity="0.85"/><rect x="67.88" y="228.83" width="239.8" height="26.8" fill="#0d0d11" opacity="0.85"/><rect x="67.88" y="272.06" width="239.8" height="26.8" fill="#0d0d11" opacity="0.85"/><rect x="67.88" y="315.29" width="239.8" height="26.8" fill="#0d0d11" opacity="0.85"/><rect x="67.88" y="358.52" width="239.8" height="26.8" fill="#0d0d11" opacity="0.85"/><rect x="67.88" y="401.75" width="239.8" height="26.8" fill="#0d0d11" opacity="0.85"/><rect x="67.88" y="444.98" width="239.8" height="26.8" fill="#0d0d11" opacity="0.85"/><rect x="67.88" y="488.22" width="239.8" height="26.8" fill="#0d0d11" opacity="0.85"/><rect x="67.88" y="531.45" width="239.8" height="26.8" fill="#0d0d11" opacity="0.85"/><rect x="67.88" y="574.68" width="239.8" height="26.8" fill="#0d0d11" opacity="0.85"/><rect x="67.88" y="617.91" width="239.8" height="26.8" fill="#0d0d11" opacity="0.85"/><rect x="67.88" y="661.14" width="239.8" height="26.8" fill="#0d0d11" opacity="0.85"/><rect x="67.88" y="704.37" width="239.8" height="26.8" fill="#0d0d11" opacity="0.85"/><rect x="67.88" y="747.6" width="239.8" height="26.8" fill="#0d0d11" opacity="0.85"/><rect x="67.88" y="790.83" width="239.8" height="26.8" fill="#0d0d11" opacity="0.85"/><rect x="67.88" y="834.06" width="239.8" height="26.8" fill="#0d0d11" opacity="0.85"/><rect x="67.88" y="877.29" width="239.8" height="26.8" fill="#0d0d11" opacity="0.85"/><rect x="67.88" y="920.52" width="239.8" height="26.8" fill="#0d0d11" opacity="0.85"/><rect x="67.88" y="963.75" width="239.8" height="26.8" fill="#0d0d11" opacity="0.85"/><rect x="67.88" y="1006.98" width="239.8" height="26.8" fill="#0d0d11" opacity="0.85"/><rect x="102.14" y="142.37" width="2.4" height="907.84" fill="#0a0a0d" opacity="0.75"/><rect x="136.4" y="142.37" width="2.4" height="907.84" fill="#0a0a0d" opacity="0.75"/><rect x="170.65" y="142.37" width="2.4" height="907.84" fill="#0a0a0d" opacity="0.75"/><rect x="204.91" y="142.37" width="2.4" height="907.84" fill="#0a0a0d" opacity="0.75"/><rect x="239.17" y="142.37" width="2.4" height="907.84" fill="#0a0a0d" opacity="0.75"/><rect x="273.42" y="142.37" width="2.4" height="907.84" fill="#0a0a0d" opacity="0.75"/><rect x="139.4" y="142.37" width="28.26" height="26.8" fill="#E7C185" opacity="0.73"/><rect x="242.17" y="920.52" width="28.26" height="26.8" fill="#E7C185" opacity="0.65"/><rect x="70.88" y="920.52" width="28.26" height="26.8" fill="#E7C185" opacity="0.58"/><rect x="139.4" y="617.91" width="28.26" height="26.8" fill="#E7C185" opacity="0.44"/><rect x="173.65" y="920.52" width="28.26" height="26.8" fill="#E7C185" opacity="0.66"/><rect x="207.91" y="185.6" width="28.26" height="26.8" fill="#E7C185" opacity="0.53"/><rect x="173.65" y="228.83" width="28.26" height="26.8" fill="#E7C185" opacity="0.88"/><rect x="207.91" y="488.22" width="28.26" height="26.8" fill="#E7C185" opacity="0.62"/><rect x="173.65" y="315.29" width="28.26" height="26.8" fill="#E7C185" opacity="0.77"/><rect x="276.42" y="661.14" width="28.26" height="26.8" fill="#E7C185" opacity="0.57"/><rect x="70.88" y="877.29" width="28.26" height="26.8" fill="#E7C185" opacity="0.62"/><rect x="242.17" y="185.6" width="28.26" height="26.8" fill="#E7C185" opacity="0.41"/><rect x="105.14" y="228.83" width="28.26" height="26.8" fill="#E7C185" opacity="0.43"/><rect x="139.4" y="834.06" width="28.26" height="26.8" fill="#E7C185" opacity="0.69"/><rect x="276.42" y="488.22" width="28.26" height="26.8" fill="#E7C185" opacity="0.78"/><rect x="207.91" y="834.06" width="28.26" height="26.8" fill="#E7C185" opacity="0.75"/><rect x="276.42" y="531.45" width="28.26" height="26.8" fill="#E7C185" opacity="0.53"/><rect x="276.42" y="704.37" width="28.26" height="26.8" fill="#E7C185" opacity="0.56"/><rect x="0" y="1056.21" width="1800" height="143.79" fill="#08080a"/><rect x="0" y="1056.21" width="1800" height="2" fill="#e7c185" opacity="0.1"/><rect x="1466.24" y="1029.04" width="141.15" height="72" fill="#070708"/><rect x="1661.53" y="1024.43" width="76.53" height="72" fill="#070708"/><rect x="391.88" y="1016.04" width="72.41" height="72" fill="#070708"/><rect x="582.68" y="1014.71" width="178.64" height="72" fill="#070708"/><rect x="378.52" y="1000.81" width="168.94" height="72" fill="#070708"/><rect x="81.16" y="993.63" width="124.25" height="72" fill="#070708"/><rect x="184.52" y="1015.97" width="122.2" height="72" fill="#070708"/><rect x="478.05" y="986.25" width="158.33" height="72" fill="#070708"/><rect x="175.99" y="1016.09" width="158.53" height="72" fill="#070708"/><rect x="620.95" y="1029.51" width="92.69" height="72" fill="#070708"/><rect x="759.9" y="1018.36" width="126.23" height="72" fill="#070708"/><rect x="1642.99" y="1007.4" width="105.4" height="72" fill="#070708"/>
<rect x="0" y="0" width="1800" height="1200" fill="url(#vig)"/>
<rect x="0" y="0" width="1800" height="1200" fill="url(#vg)" opacity="0.15" style="mix-blend-mode:overlay"/>
</svg>