<svg xmlns="http://www.w3.org/2000/svg" viewBox="0 0 1800 1200" width="1800" height="1200" role="img">
<defs><linearGradient id="sky" x1="0" y1="0" x2="0" y2="1"><stop offset="0%" stop-color="#2C2A33" stop-opacity="1"/><stop offset="46%" stop-color="#7A6558" stop-opacity="1"/><stop offset="100%" stop-color="#D6A87B" stop-opacity="1"/></linearGradient><radialGradient id="sun" cx="50%" cy="50%" r="50%"><stop offset="0%" stop-color="#f5d7a5" stop-opacity="0.55"/><stop offset="38%" stop-color="#f5d7a5" stop-opacity="0.16"/><stop offset="100%" stop-color="#f5d7a5" stop-opacity="0"/></radialGradient><linearGradient id="gnd" x1="0" y1="0" x2="0" y2="1"><stop offset="0%" stop-color="#574a3b" stop-opacity="1"/><stop offset="100%" stop-color="#171416" stop-opacity="1"/></linearGradient><filter id="vg-f" x="0" y="0" width="100%" height="100%"><feTurbulence type="fractalNoise" baseFrequency="0.9" numOctaves="3" stitchTiles="stitch"/><feColorMatrix type="saturate" values="0"/></filter>
<pattern id="vg" width="120" height="120" patternUnits="userSpaceOnUse"><rect width="120" height="120" filter="url(#vg-f)" opacity="1"/></pattern><radialGradient id="vig" cx="50%" cy="42%" r="80%"><stop offset="52%" stop-color="#000000" stop-opacity="0"/><stop offset="100%" stop-color="#0A0806" stop-opacity="0.48"/></radialGradient></defs>
<rect x="0" y="0" width="1800" height="1200" fill="url(#sky)"/><circle cx="337.28" cy="264" r="201.96" fill="url(#sun)"/><rect x="0" y="721.25" width="1800" height="478.75" fill="url(#gnd)"/><rect x="300.22" y="565.63" width="1212.55" height="155.61" fill="#eccb97"/><rect x="300.22" y="565.63" width="1212.55" height="5" fill="#f2dbb6"/><rect x="300.22" y="715.25" width="1212.55" height="6" fill="#9c8664" opacity="0.5"/><rect x="372.98" y="596.76" width="714.03" height="90.26" fill="#141419" opacity="0.88"/><rect x="372.98" y="596.76" width="714.03" height="90.26" fill="#e9c489" opacity="0.07"/><rect x="551.48" y="596.76" width="2.5" height="90.26" fill="#eccb97" opacity="0.85"/><rect x="729.99" y="596.76" width="2.5" height="90.26" fill="#eccb97" opacity="0.85"/><rect x="908.5" y="596.76" width="2.5" height="90.26" fill="#eccb97" opacity="0.85"/><rect x="346.67" y="410.02" width="1201.97" height="155.61" fill="#c6ab7f"/><rect x="346.67" y="410.02" width="1201.97" height="5" fill="#f2dbb6"/><rect x="346.67" y="559.63" width="1201.97" height="6" fill="#9c8664" opacity="0.5"/><rect x="871.44" y="441.14" width="605.07" height="90.26" fill="#141419" opacity="0.88"/><rect x="871.44" y="441.14" width="605.07" height="90.26" fill="#e9c489" opacity="0.07"/><rect x="972.29" y="441.14" width="2.5" height="90.26" fill="#eccb97" opacity="0.85"/><rect x="1073.13" y="441.14" width="2.5" height="90.26" fill="#eccb97" opacity="0.85"/><rect x="1173.98" y="441.14" width="2.5" height="90.26" fill="#eccb97" opacity="0.85"/><rect x="1274.82" y="441.14" width="2.5" height="90.26" fill="#eccb97" opacity="0.85"/><rect x="1375.67" y="441.14" width="2.5" height="90.26" fill="#eccb97" opacity="0.85"/><rect x="190.93" y="254.41" width="1343.7" height="155.61" fill="#eccb97"/><rect x="190.93" y="254.41" width="1343.7" height="5" fill="#f2dbb6"/><rect x="190.93" y="404.02" width="1343.7" height="6" fill="#9c8664" opacity="0.5"/><rect x="271.55" y="285.53" width="1031.57" height="90.26" fill="#141419" opacity="0.88"/><rect x="271.55" y="285.53" width="1031.57" height="90.26" fill="#e9c489" opacity="0.07"/><rect x="615.41" y="285.53" width="2.5" height="90.26" fill="#eccb97" opacity="0.85"/><rect x="959.27" y="285.53" width="2.5" height="90.26" fill="#eccb97" opacity="0.85"/><polygon points="290.23,721.25 1514.77,721.25 1799.89,864.87 195.19,864.87" fill="#110f10" opacity="0.28"/><path d="M203.76,745.25 C128.02,528.84 149.66,301.62 203.76,204.24 C257.86,301.62 279.5,528.84 203.76,745.25 Z" fill="#1b191b"/><path d="M1616.62,769.25 C1573.07,644.79 1585.51,514.12 1616.62,458.12 C1647.74,514.12 1660.18,644.79 1616.62,769.25 Z" fill="#1b191b"/><path d="M1440,733.25 C1396.76,609.7 1409.11,479.97 1440,424.37 C1470.89,479.97 1483.24,609.7 1440,733.25 Z" fill="#3e3633"/><rect x="261.36" y="901.48" width="979.68" height="250.52" fill="#44444a"/><rect x="261.36" y="901.48" width="979.68" height="3" fill="#edd0a1" opacity="0.4"/><rect x="359.33" y="909.48" width="607.4" height="119.41" fill="#eccb97" opacity="0.12"/><rect x="562.51" y="925.48" width="250.62" height="2" fill="#ffffff" opacity="0.06"/><rect x="411.27" y="947.08" width="274.15" height="2" fill="#ffffff" opacity="0.07"/><rect x="472.61" y="968.68" width="145.96" height="2" fill="#ffffff" opacity="0.08"/><rect x="727.96" y="990.28" width="346.57" height="2" fill="#ffffff" opacity="0.05"/><rect x="478.31" y="1011.88" width="318.3" height="2" fill="#ffffff" opacity="0.08"/><rect x="739.77" y="1033.48" width="194.55" height="2" fill="#ffffff" opacity="0.1"/><ellipse cx="-5.09" cy="739.25" rx="21.62" ry="15.56" fill="#1c191b"/><ellipse cx="233.09" cy="739.25" rx="19.78" ry="14.24" fill="#1c191b"/><ellipse cx="456.08" cy="739.25" rx="14.58" ry="10.5" fill="#1c191b"/><ellipse cx="683.63" cy="739.25" rx="24.2" ry="17.42" fill="#1c191b"/><ellipse cx="901.49" cy="739.25" rx="18.23" ry="13.13" fill="#1c191b"/><ellipse cx="1116.85" cy="739.25" rx="28.99" ry="20.87" fill="#1c191b"/><ellipse cx="1351.63" cy="739.25" rx="16.97" ry="12.22" fill="#1c191b"/><ellipse cx="1584.33" cy="739.25" rx="26.62" ry="19.17" fill="#1c191b"/><ellipse cx="1796.95" cy="739.25" rx="21.71" ry="15.63" fill="#1c191b"/>
<rect x="0" y="0" width="1800" height="1200" fill="url(#vig)"/>
<rect x="0" y="0" width="1800" height="1200" fill="url(#vg)" opacity="0.15" style="mix-blend-mode:overlay"/>
</svg>